ISO-10303-21;
HEADER;

/* File generated by Shapr3D Version 5.910.9193.0 */

FILE_DESCRIPTION(('HOOPS Exchange Step'),'2;1');

FILE_NAME('C:\\Users\\Nhatkhongbuon\\AppData\\Local\\Packages\\Shapr3D.Shapr3D_dvv5p1vgwv6mp\\TempState\\export\\temp_export',
'2025-07-24T15:07:32+07:00',
('Nhatkhongbuon'),
('Shapr3D Limited'),
'HOOPS Exchange 2024.8',
'Shapr3D',
'Authorized');

FILE_SCHEMA( ('AP242_MANAGED_MODEL_BASED_3D_ENGINEERING_MIM_LF {1 0 10303 442 1 1 4}') );

ENDSEC;

DATA;
#3=(NAMED_UNIT(*)PLANE_ANGLE_UNIT()SI_UNIT($,.RADIAN.));
#4=PLANE_ANGLE_MEASURE_WITH_UNIT(PLANE_ANGLE_MEASURE(0.0174532925),#3);
#5=(CONVERSION_BASED_UNIT('DEGREE',#4)NAMED_UNIT(#6)PLANE_ANGLE_UNIT());
#6=DIMENSIONAL_EXPONENTS(0.,0.,0.,0.,0.,0.,0.);
#7=(NAMED_UNIT(*)SI_UNIT($,.STERADIAN.)SOLID_ANGLE_UNIT());
#8=(LENGTH_UNIT()NAMED_UNIT(*)SI_UNIT(.MILLI.,.METRE.));
#9=UNCERTAINTY_MEASURE_WITH_UNIT(LENGTH_MEASURE(1.000000E-03),#8,'DISTANCE_ACCURACY_VALUE','Maximum Tolerance applied to model');
#10=(GEOMETRIC_REPRESENTATION_CONTEXT(3)GLOBAL_UNCERTAINTY_ASSIGNED_CONTEXT((#9))GLOBAL_UNIT_ASSIGNED_CONTEXT((#8,#5,#7))REPRESENTATION_CONTEXT('','root'));
#12=CARTESIAN_POINT('',(0.,0.,0.));
#13=DIRECTION('',(0.,0.,1.));
#14=DIRECTION('',(1.,0.,0.));
#15=AXIS2_PLACEMENT_3D('',#12,#13,#14);
#26=(NAMED_UNIT(*)PLANE_ANGLE_UNIT()SI_UNIT($,.RADIAN.));
#27=PLANE_ANGLE_MEASURE_WITH_UNIT(PLANE_ANGLE_MEASURE(0.0174532925),#26);
#28=(CONVERSION_BASED_UNIT('DEGREE',#27)NAMED_UNIT(#29)PLANE_ANGLE_UNIT());
#29=DIMENSIONAL_EXPONENTS(0.,0.,0.,0.,0.,0.,0.);
#30=(NAMED_UNIT(*)SI_UNIT($,.STERADIAN.)SOLID_ANGLE_UNIT());
#31=(LENGTH_UNIT()NAMED_UNIT(*)SI_UNIT(.MILLI.,.METRE.));
#32=UNCERTAINTY_MEASURE_WITH_UNIT(LENGTH_MEASURE(1.000000E-05),#31,'DISTANCE_ACCURACY_VALUE','Maximum Tolerance applied to model');
#33=(GEOMETRIC_REPRESENTATION_CONTEXT(3)GLOBAL_UNCERTAINTY_ASSIGNED_CONTEXT((#32))GLOBAL_UNIT_ASSIGNED_CONTEXT((#31,#28,#30))REPRESENTATION_CONTEXT('','9x12 Buzzer.step'));
#45=CARTESIAN_POINT('',(0.,0.,0.));
#46=DIRECTION('',(0.,0.,1.));
#47=DIRECTION('',(1.,0.,-0.));
#48=AXIS2_PLACEMENT_3D('',#45,#46,#47);
#49=ITEM_DEFINED_TRANSFORMATION('','',#48,#15);
#50=(REPRESENTATION_RELATIONSHIP('','',#35,#16)REPRESENTATION_RELATIONSHIP_WITH_TRANSFORMATION(#49)SHAPE_REPRESENTATION_RELATIONSHIP());
#51=NEXT_ASSEMBLY_USAGE_OCCURRENCE('9x12 Buzzer.step_1','9x12 Buzzer.step','9x12 Buzzer.step',#25,#44,$);
#52=PRODUCT_DEFINITION_SHAPE('','',#51);
#53=CONTEXT_DEPENDENT_SHAPE_REPRESENTATION(#50,#52);
#55=CARTESIAN_POINT('',(-0.,2.8,12.775));
#56=DIRECTION('',(0.,-0.,1.));
#57=DIRECTION('',(0.,-1.,-0.));
#58=AXIS2_PLACEMENT_3D('',#55,#56,#57);
#59=TOROIDAL_SURFACE('',#58,5.675,0.2);
#60=CARTESIAN_POINT('',(-0.,-2.875,12.975));
#61=VERTEX_POINT('',#60);
#62=CARTESIAN_POINT('',(-0.,-3.075,12.775));
#63=VERTEX_POINT('',#62);
#64=CARTESIAN_POINT('',(-0.,-2.875,12.775));
#65=DIRECTION('',(1.,0.,-0.));
#66=DIRECTION('',(0.,-1.,-0.));
#67=AXIS2_PLACEMENT_3D('',#64,#65,#66);
#68=CIRCLE('',#67,0.2);
#69=EDGE_CURVE('',#61,#63,#68,.T.);
#70=ORIENTED_EDGE('',*,*,#69,.T.);
#71=CARTESIAN_POINT('',(5.875,2.8,12.775));
#72=VERTEX_POINT('',#71);
#73=CARTESIAN_POINT('',(-0.,2.8,12.775));
#74=DIRECTION('',(0.,-0.,1.));
#75=DIRECTION('',(0.,-1.,-0.));
#76=AXIS2_PLACEMENT_3D('',#73,#74,#75);
#77=CIRCLE('',#76,5.875);
#78=EDGE_CURVE('',#63,#72,#77,.T.);
#79=ORIENTED_EDGE('',*,*,#78,.T.);
#80=CARTESIAN_POINT('',(-0.,2.8,12.775));
#81=DIRECTION('',(0.,-0.,1.));
#82=DIRECTION('',(0.,-1.,-0.));
#83=AXIS2_PLACEMENT_3D('',#80,#81,#82);
#84=CIRCLE('',#83,5.875);
#85=EDGE_CURVE('',#72,#63,#84,.T.);
#86=ORIENTED_EDGE('',*,*,#85,.T.);
#87=ORIENTED_EDGE('',*,*,#69,.F.);
#88=CARTESIAN_POINT('',(-0.,2.8,12.975));
#89=DIRECTION('',(-0.,0.,-1.));
#90=DIRECTION('',(0.,-1.,-0.));
#91=AXIS2_PLACEMENT_3D('',#88,#89,#90);
#92=CIRCLE('',#91,5.675);
#93=EDGE_CURVE('',#61,#61,#92,.T.);
#94=ORIENTED_EDGE('',*,*,#93,.T.);
#95=EDGE_LOOP('',(#70,#79,#86,#87,#94));
#96=FACE_BOUND('',#95,.T.);
#97=ADVANCED_FACE('',(#96),#59,.T.);
#98=CARTESIAN_POINT('',(-0.,2.8,12.975));
#99=DIRECTION('',(0.,-0.,1.));
#100=DIRECTION('',(1.,0.,0.));
#101=AXIS2_PLACEMENT_3D('',#98,#99,#100);
#102=PLANE('',#101);
#103=ORIENTED_EDGE('',*,*,#93,.F.);
#104=EDGE_LOOP('',(#103));
#105=FACE_BOUND('',#104,.T.);
#106=CARTESIAN_POINT('',(-3.324959708,3.790766895,12.975));
#107=VERTEX_POINT('',#106);
#108=CARTESIAN_POINT('',(-4.274959708,2.840766895,12.975));
#109=VERTEX_POINT('',#108);
#110=CARTESIAN_POINT('',(-3.324959708,2.840766895,12.975));
#111=DIRECTION('',(0.,0.,-1.));
#112=DIRECTION('',(0.,1.,0.));
#113=AXIS2_PLACEMENT_3D('',#110,#111,#112);
#114=CIRCLE('',#113,0.95);
#115=EDGE_CURVE('',#107,#109,#114,.T.);
#116=ORIENTED_EDGE('',*,*,#115,.T.);
#117=CARTESIAN_POINT('',(-3.324959708,2.840766895,12.975));
#118=DIRECTION('',(0.,0.,-1.));
#119=DIRECTION('',(0.,1.,0.));
#120=AXIS2_PLACEMENT_3D('',#117,#118,#119);
#121=CIRCLE('',#120,0.95);
#122=EDGE_CURVE('',#109,#107,#121,.T.);
#123=ORIENTED_EDGE('',*,*,#122,.T.);
#124=EDGE_LOOP('',(#116,#123));
#125=FACE_BOUND('',#124,.T.);
#126=CARTESIAN_POINT('',(-0.,4.05,12.975));
#127=VERTEX_POINT('',#126);
#128=CARTESIAN_POINT('',(1.25,2.8,12.975));
#129=VERTEX_POINT('',#128);
#130=CARTESIAN_POINT('',(-0.,2.8,12.975));
#131=DIRECTION('',(0.,0.,-1.));
#132=DIRECTION('',(0.,1.,0.));
#133=AXIS2_PLACEMENT_3D('',#130,#131,#132);
#134=CIRCLE('',#133,1.25);
#135=EDGE_CURVE('',#127,#129,#134,.T.);
#136=ORIENTED_EDGE('',*,*,#135,.T.);
#137=CARTESIAN_POINT('',(-0.,2.8,12.975));
#138=DIRECTION('',(0.,0.,-1.));
#139=DIRECTION('',(0.,1.,0.));
#140=AXIS2_PLACEMENT_3D('',#137,#138,#139);
#141=CIRCLE('',#140,1.25);
#142=EDGE_CURVE('',#129,#127,#141,.T.);
#143=ORIENTED_EDGE('',*,*,#142,.T.);
#144=EDGE_LOOP('',(#136,#143));
#145=FACE_BOUND('',#144,.T.);
#146=ADVANCED_FACE('',(#105,#125,#145),#102,.T.);
#147=CARTESIAN_POINT('',(-0.,2.8,12.975));
#148=DIRECTION('',(0.,0.,-1.));
#149=DIRECTION('',(1.,0.,0.));
#150=AXIS2_PLACEMENT_3D('',#147,#148,#149);
#151=CYLINDRICAL_SURFACE('',#150,5.875);
#152=CARTESIAN_POINT('',(5.875,2.8,3.775));
#153=VERTEX_POINT('',#152);
#154=CARTESIAN_POINT('',(5.875,2.8,3.775));
#155=DIRECTION('',(-0.,-0.,1.));
#156=VECTOR('',#155,9.);
#157=LINE('',#154,#156);
#158=EDGE_CURVE('',#153,#72,#157,.T.);
#159=ORIENTED_EDGE('',*,*,#158,.T.);
#160=ORIENTED_EDGE('',*,*,#78,.F.);
#161=ORIENTED_EDGE('',*,*,#85,.F.);
#162=ORIENTED_EDGE('',*,*,#158,.F.);
#163=CARTESIAN_POINT('',(-0.,8.675,3.775));
#164=VERTEX_POINT('',#163);
#165=CARTESIAN_POINT('',(-0.,2.8,3.775));
#166=DIRECTION('',(0.,0.,-1.));
#167=DIRECTION('',(0.,1.,0.));
#168=AXIS2_PLACEMENT_3D('',#165,#166,#167);
#169=CIRCLE('',#168,5.875);
#170=EDGE_CURVE('',#164,#153,#169,.T.);
#171=ORIENTED_EDGE('',*,*,#170,.F.);
#172=CARTESIAN_POINT('',(-0.,2.8,3.775));
#173=DIRECTION('',(0.,0.,-1.));
#174=DIRECTION('',(0.,1.,0.));
#175=AXIS2_PLACEMENT_3D('',#172,#173,#174);
#176=CIRCLE('',#175,5.875);
#177=EDGE_CURVE('',#153,#164,#176,.T.);
#178=ORIENTED_EDGE('',*,*,#177,.F.);
#179=EDGE_LOOP('',(#159,#160,#161,#162,#171,#178));
#180=FACE_BOUND('',#179,.T.);
#181=ADVANCED_FACE('',(#180),#151,.T.);
#182=CARTESIAN_POINT('',(-3.324959708,2.840766895,34.275));
#183=DIRECTION('',(0.,0.,-1.));
#184=DIRECTION('',(1.,-0.,-0.));
#185=AXIS2_PLACEMENT_3D('',#182,#183,#184);
#186=CYLINDRICAL_SURFACE('',#185,0.75);
#187=CARTESIAN_POINT('',(-2.574959708,2.840766895,12.925));
#188=VERTEX_POINT('',#187);
#189=CARTESIAN_POINT('',(-2.574959708,2.840766895,12.975));
#190=VERTEX_POINT('',#189);
#191=CARTESIAN_POINT('',(-2.574959708,2.840766895,12.925));
#192=DIRECTION('',(-0.,-0.,1.));
#193=VECTOR('',#192,0.05);
#194=LINE('',#191,#193);
#195=EDGE_CURVE('',#188,#190,#194,.T.);
#196=ORIENTED_EDGE('',*,*,#195,.T.);
#197=CARTESIAN_POINT('',(-3.324959708,3.590766895,12.975));
#198=VERTEX_POINT('',#197);
#199=CARTESIAN_POINT('',(-3.324959708,2.840766895,12.975));
#200=DIRECTION('',(-0.,-0.,1.));
#201=DIRECTION('',(0.,1.,0.));
#202=AXIS2_PLACEMENT_3D('',#199,#200,#201);
#203=CIRCLE('',#202,0.75);
#204=EDGE_CURVE('',#198,#190,#203,.T.);
#205=ORIENTED_EDGE('',*,*,#204,.F.);
#206=CARTESIAN_POINT('',(-3.324959708,2.840766895,12.975));
#207=DIRECTION('',(-0.,-0.,1.));
#208=DIRECTION('',(0.,1.,0.));
#209=AXIS2_PLACEMENT_3D('',#206,#207,#208);
#210=CIRCLE('',#209,0.75);
#211=EDGE_CURVE('',#190,#198,#210,.T.);
#212=ORIENTED_EDGE('',*,*,#211,.F.);
#213=ORIENTED_EDGE('',*,*,#195,.F.);
#214=CARTESIAN_POINT('',(-3.324959708,3.590766895,12.925));
#215=VERTEX_POINT('',#214);
#216=CARTESIAN_POINT('',(-3.324959708,2.840766895,12.925));
#217=DIRECTION('',(-0.,-0.,1.));
#218=DIRECTION('',(0.,1.,0.));
#219=AXIS2_PLACEMENT_3D('',#216,#217,#218);
#220=CIRCLE('',#219,0.75);
#221=EDGE_CURVE('',#188,#215,#220,.T.);
#222=ORIENTED_EDGE('',*,*,#221,.T.);
#223=CARTESIAN_POINT('',(-3.324959708,2.840766895,12.925));
#224=DIRECTION('',(-0.,-0.,1.));
#225=DIRECTION('',(0.,1.,0.));
#226=AXIS2_PLACEMENT_3D('',#223,#224,#225);
#227=CIRCLE('',#226,0.75);
#228=EDGE_CURVE('',#215,#188,#227,.T.);
#229=ORIENTED_EDGE('',*,*,#228,.T.);
#230=EDGE_LOOP('',(#196,#205,#212,#213,#222,#229));
#231=FACE_BOUND('',#230,.T.);
#232=ADVANCED_FACE('',(#231),#186,.T.);
#233=CARTESIAN_POINT('',(-3.324959708,2.840766895,34.275));
#234=DIRECTION('',(0.,0.,-1.));
#235=DIRECTION('',(-1.,0.,0.));
#236=AXIS2_PLACEMENT_3D('',#233,#234,#235);
#237=CYLINDRICAL_SURFACE('',#236,0.95);
#238=CARTESIAN_POINT('',(-4.274959708,2.840766895,12.925));
#239=VERTEX_POINT('',#238);
#240=CARTESIAN_POINT('',(-4.274959708,2.840766895,12.925));
#241=DIRECTION('',(-0.,-0.,1.));
#242=VECTOR('',#241,0.05);
#243=LINE('',#240,#242);
#244=EDGE_CURVE('',#239,#109,#243,.T.);
#245=ORIENTED_EDGE('',*,*,#244,.F.);
#246=CARTESIAN_POINT('',(-3.324959708,3.790766895,12.925));
#247=VERTEX_POINT('',#246);
#248=CARTESIAN_POINT('',(-3.324959708,2.840766895,12.925));
#249=DIRECTION('',(0.,0.,-1.));
#250=DIRECTION('',(0.,1.,0.));
#251=AXIS2_PLACEMENT_3D('',#248,#249,#250);
#252=CIRCLE('',#251,0.95);
#253=EDGE_CURVE('',#239,#247,#252,.T.);
#254=ORIENTED_EDGE('',*,*,#253,.T.);
#255=CARTESIAN_POINT('',(-3.324959708,2.840766895,12.925));
#256=DIRECTION('',(0.,0.,-1.));
#257=DIRECTION('',(0.,1.,0.));
#258=AXIS2_PLACEMENT_3D('',#255,#256,#257);
#259=CIRCLE('',#258,0.95);
#260=EDGE_CURVE('',#247,#239,#259,.T.);
#261=ORIENTED_EDGE('',*,*,#260,.T.);
#262=ORIENTED_EDGE('',*,*,#244,.T.);
#263=ORIENTED_EDGE('',*,*,#115,.F.);
#264=ORIENTED_EDGE('',*,*,#122,.F.);
#265=EDGE_LOOP('',(#245,#254,#261,#262,#263,#264));
#266=FACE_BOUND('',#265,.T.);
#267=ADVANCED_FACE('',(#266),#237,.F.);
#268=CARTESIAN_POINT('',(-3.324959708,2.840766895,12.925));
#269=DIRECTION('',(0.,0.,-1.));
#270=DIRECTION('',(-1.,0.,0.));
#271=AXIS2_PLACEMENT_3D('',#268,#269,#270);
#272=PLANE('',#271);
#273=ORIENTED_EDGE('',*,*,#253,.F.);
#274=ORIENTED_EDGE('',*,*,#260,.F.);
#275=EDGE_LOOP('',(#273,#274));
#276=FACE_BOUND('',#275,.T.);
#277=ORIENTED_EDGE('',*,*,#221,.F.);
#278=ORIENTED_EDGE('',*,*,#228,.F.);
#279=EDGE_LOOP('',(#277,#278));
#280=FACE_BOUND('',#279,.T.);
#281=ADVANCED_FACE('',(#276,#280),#272,.F.);
#282=DRAUGHTING_PRE_DEFINED_COLOUR('white');
#283=FILL_AREA_STYLE_COLOUR('',#282);
#284=FILL_AREA_STYLE('',(#283));
#285=SURFACE_STYLE_FILL_AREA(#284);
#286=SURFACE_SIDE_STYLE('',(#285));
#287=SURFACE_STYLE_USAGE(.BOTH.,#286);
#288=PRESENTATION_STYLE_ASSIGNMENT((#287));
#289=OVER_RIDING_STYLED_ITEM('',(#288),#281,#54);
#290=CARTESIAN_POINT('',(-3.429325318,2.943904686,12.975));
#291=DIRECTION('',(-1.,0.,0.));
#292=DIRECTION('',(0.,1.,0.));
#293=AXIS2_PLACEMENT_3D('',#290,#291,#292);
#294=PLANE('',#293);
#295=CARTESIAN_POINT('',(-3.429325318,2.943904686,12.975));
#296=VERTEX_POINT('',#295);
#297=CARTESIAN_POINT('',(-3.429325318,3.437492836,12.975));
#298=VERTEX_POINT('',#297);
#299=CARTESIAN_POINT('',(-3.429325318,2.943904686,12.975));
#300=DIRECTION('',(0.,1.,0.));
#301=VECTOR('',#300,0.49358815);
#302=LINE('',#299,#301);
#303=EDGE_CURVE('',#296,#298,#302,.T.);
#304=ORIENTED_EDGE('',*,*,#303,.F.);
#305=CARTESIAN_POINT('',(-3.429325318,2.943904686,12.925));
#306=VERTEX_POINT('',#305);
#307=CARTESIAN_POINT('',(-3.429325318,2.943904686,12.975));
#308=DIRECTION('',(0.,0.,-1.));
#309=VECTOR('',#308,0.05);
#310=LINE('',#307,#309);
#311=EDGE_CURVE('',#296,#306,#310,.T.);
#312=ORIENTED_EDGE('',*,*,#311,.T.);
#313=CARTESIAN_POINT('',(-3.429325318,3.437492836,12.925));
#314=VERTEX_POINT('',#313);
#315=CARTESIAN_POINT('',(-3.429325318,2.943904686,12.925));
#316=DIRECTION('',(0.,1.,0.));
#317=VECTOR('',#316,0.49358815);
#318=LINE('',#315,#317);
#319=EDGE_CURVE('',#306,#314,#318,.T.);
#320=ORIENTED_EDGE('',*,*,#319,.T.);
#321=CARTESIAN_POINT('',(-3.429325318,3.437492836,12.975));
#322=DIRECTION('',(0.,0.,-1.));
#323=VECTOR('',#322,0.05);
#324=LINE('',#321,#323);
#325=EDGE_CURVE('',#298,#314,#324,.T.);
#326=ORIENTED_EDGE('',*,*,#325,.F.);
#327=EDGE_LOOP('',(#304,#312,#320,#326));
#328=FACE_BOUND('',#327,.T.);
#329=ADVANCED_FACE('',(#328),#294,.F.);
#330=CARTESIAN_POINT('',(-3.919229975,2.943904686,12.975));
#331=DIRECTION('',(0.,1.,0.));
#332=DIRECTION('',(1.,-0.,-0.));
#333=AXIS2_PLACEMENT_3D('',#330,#331,#332);
#334=PLANE('',#333);
#335=CARTESIAN_POINT('',(-3.919229975,2.943904686,12.975));
#336=VERTEX_POINT('',#335);
#337=CARTESIAN_POINT('',(-3.919229975,2.943904686,12.975));
#338=DIRECTION('',(1.,-0.,-0.));
#339=VECTOR('',#338,0.489904657);
#340=LINE('',#337,#339);
#341=EDGE_CURVE('',#336,#296,#340,.T.);
#342=ORIENTED_EDGE('',*,*,#341,.F.);
#343=CARTESIAN_POINT('',(-3.919229975,2.943904686,12.925));
#344=VERTEX_POINT('',#343);
#345=CARTESIAN_POINT('',(-3.919229975,2.943904686,12.975));
#346=DIRECTION('',(0.,0.,-1.));
#347=VECTOR('',#346,0.05);
#348=LINE('',#345,#347);
#349=EDGE_CURVE('',#336,#344,#348,.T.);
#350=ORIENTED_EDGE('',*,*,#349,.T.);
#351=CARTESIAN_POINT('',(-3.919229975,2.943904686,12.925));
#352=DIRECTION('',(1.,-0.,-0.));
#353=VECTOR('',#352,0.489904657);
#354=LINE('',#351,#353);
#355=EDGE_CURVE('',#344,#306,#354,.T.);
#356=ORIENTED_EDGE('',*,*,#355,.T.);
#357=ORIENTED_EDGE('',*,*,#311,.F.);
#358=EDGE_LOOP('',(#342,#350,#356,#357));
#359=FACE_BOUND('',#358,.T.);
#360=ADVANCED_FACE('',(#359),#334,.F.);
#361=CARTESIAN_POINT('',(-3.919229975,2.737629104,12.975));
#362=DIRECTION('',(-1.,0.,0.));
#363=DIRECTION('',(0.,1.,0.));
#364=AXIS2_PLACEMENT_3D('',#361,#362,#363);
#365=PLANE('',#364);
#366=CARTESIAN_POINT('',(-3.919229975,2.737629104,12.975));
#367=VERTEX_POINT('',#366);
#368=CARTESIAN_POINT('',(-3.919229975,2.737629104,12.975));
#369=DIRECTION('',(0.,1.,0.));
#370=VECTOR('',#369,0.206275582);
#371=LINE('',#368,#370);
#372=EDGE_CURVE('',#367,#336,#371,.T.);
#373=ORIENTED_EDGE('',*,*,#372,.F.);
#374=CARTESIAN_POINT('',(-3.919229975,2.737629104,12.925));
#375=VERTEX_POINT('',#374);
#376=CARTESIAN_POINT('',(-3.919229975,2.737629104,12.975));
#377=DIRECTION('',(0.,0.,-1.));
#378=VECTOR('',#377,0.05);
#379=LINE('',#376,#378);
#380=EDGE_CURVE('',#367,#375,#379,.T.);
#381=ORIENTED_EDGE('',*,*,#380,.T.);
#382=CARTESIAN_POINT('',(-3.919229975,2.737629104,12.925));
#383=DIRECTION('',(0.,1.,0.));
#384=VECTOR('',#383,0.206275582);
#385=LINE('',#382,#384);
#386=EDGE_CURVE('',#375,#344,#385,.T.);
#387=ORIENTED_EDGE('',*,*,#386,.T.);
#388=ORIENTED_EDGE('',*,*,#349,.F.);
#389=EDGE_LOOP('',(#373,#381,#387,#388));
#390=FACE_BOUND('',#389,.T.);
#391=ADVANCED_FACE('',(#390),#365,.F.);
#392=CARTESIAN_POINT('',(-3.429325318,2.737629104,12.975));
#393=DIRECTION('',(-0.,-1.,-0.));
#394=DIRECTION('',(-1.,0.,0.));
#395=AXIS2_PLACEMENT_3D('',#392,#393,#394);
#396=PLANE('',#395);
#397=CARTESIAN_POINT('',(-3.429325318,2.737629104,12.975));
#398=VERTEX_POINT('',#397);
#399=CARTESIAN_POINT('',(-3.429325318,2.737629104,12.975));
#400=DIRECTION('',(-1.,0.,0.));
#401=VECTOR('',#400,0.489904657);
#402=LINE('',#399,#401);
#403=EDGE_CURVE('',#398,#367,#402,.T.);
#404=ORIENTED_EDGE('',*,*,#403,.F.);
#405=CARTESIAN_POINT('',(-3.429325318,2.737629104,12.925));
#406=VERTEX_POINT('',#405);
#407=CARTESIAN_POINT('',(-3.429325318,2.737629104,12.975));
#408=DIRECTION('',(0.,0.,-1.));
#409=VECTOR('',#408,0.05);
#410=LINE('',#407,#409);
#411=EDGE_CURVE('',#398,#406,#410,.T.);
#412=ORIENTED_EDGE('',*,*,#411,.T.);
#413=CARTESIAN_POINT('',(-3.429325318,2.737629104,12.925));
#414=DIRECTION('',(-1.,0.,0.));
#415=VECTOR('',#414,0.489904657);
#416=LINE('',#413,#415);
#417=EDGE_CURVE('',#406,#375,#416,.T.);
#418=ORIENTED_EDGE('',*,*,#417,.T.);
#419=ORIENTED_EDGE('',*,*,#380,.F.);
#420=EDGE_LOOP('',(#404,#412,#418,#419));
#421=FACE_BOUND('',#420,.T.);
#422=ADVANCED_FACE('',(#421),#396,.F.);
#423=CARTESIAN_POINT('',(-3.429325318,2.247724521,12.975));
#424=DIRECTION('',(-1.,0.,0.));
#425=DIRECTION('',(0.,1.,0.));
#426=AXIS2_PLACEMENT_3D('',#423,#424,#425);
#427=PLANE('',#426);
#428=CARTESIAN_POINT('',(-3.429325318,2.247724521,12.975));
#429=VERTEX_POINT('',#428);
#430=CARTESIAN_POINT('',(-3.429325318,2.247724521,12.975));
#431=DIRECTION('',(0.,1.,0.));
#432=VECTOR('',#431,0.489904583);
#433=LINE('',#430,#432);
#434=EDGE_CURVE('',#429,#398,#433,.T.);
#435=ORIENTED_EDGE('',*,*,#434,.F.);
#436=CARTESIAN_POINT('',(-3.429325318,2.247724521,12.925));
#437=VERTEX_POINT('',#436);
#438=CARTESIAN_POINT('',(-3.429325318,2.247724521,12.975));
#439=DIRECTION('',(0.,0.,-1.));
#440=VECTOR('',#439,0.05);
#441=LINE('',#438,#440);
#442=EDGE_CURVE('',#429,#437,#441,.T.);
#443=ORIENTED_EDGE('',*,*,#442,.T.);
#444=CARTESIAN_POINT('',(-3.429325318,2.247724521,12.925));
#445=DIRECTION('',(0.,1.,0.));
#446=VECTOR('',#445,0.489904583);
#447=LINE('',#444,#446);
#448=EDGE_CURVE('',#437,#406,#447,.T.);
#449=ORIENTED_EDGE('',*,*,#448,.T.);
#450=ORIENTED_EDGE('',*,*,#411,.F.);
#451=EDGE_LOOP('',(#435,#443,#449,#450));
#452=FACE_BOUND('',#451,.T.);
#453=ADVANCED_FACE('',(#452),#427,.F.);
#454=CARTESIAN_POINT('',(-3.220594099,2.247724521,12.975));
#455=DIRECTION('',(-0.,-1.,-0.));
#456=DIRECTION('',(-1.,0.,0.));
#457=AXIS2_PLACEMENT_3D('',#454,#455,#456);
#458=PLANE('',#457);
#459=CARTESIAN_POINT('',(-3.220594099,2.247724521,12.975));
#460=VERTEX_POINT('',#459);
#461=CARTESIAN_POINT('',(-3.220594099,2.247724521,12.975));
#462=DIRECTION('',(-1.,0.,0.));
#463=VECTOR('',#462,0.208731219);
#464=LINE('',#461,#463);
#465=EDGE_CURVE('',#460,#429,#464,.T.);
#466=ORIENTED_EDGE('',*,*,#465,.F.);
#467=CARTESIAN_POINT('',(-3.220594099,2.247724521,12.925));
#468=VERTEX_POINT('',#467);
#469=CARTESIAN_POINT('',(-3.220594099,2.247724521,12.975));
#470=DIRECTION('',(0.,0.,-1.));
#471=VECTOR('',#470,0.05);
#472=LINE('',#469,#471);
#473=EDGE_CURVE('',#460,#468,#472,.T.);
#474=ORIENTED_EDGE('',*,*,#473,.T.);
#475=CARTESIAN_POINT('',(-3.220594099,2.247724521,12.925));
#476=DIRECTION('',(-1.,0.,0.));
#477=VECTOR('',#476,0.208731219);
#478=LINE('',#475,#477);
#479=EDGE_CURVE('',#468,#437,#478,.T.);
#480=ORIENTED_EDGE('',*,*,#479,.T.);
#481=ORIENTED_EDGE('',*,*,#442,.F.);
#482=EDGE_LOOP('',(#466,#474,#480,#481));
#483=FACE_BOUND('',#482,.T.);
#484=ADVANCED_FACE('',(#483),#458,.F.);
#485=CARTESIAN_POINT('',(-3.220594099,2.737629104,12.975));
#486=DIRECTION('',(1.,-0.,-0.));
#487=DIRECTION('',(-0.,-1.,-0.));
#488=AXIS2_PLACEMENT_3D('',#485,#486,#487);
#489=PLANE('',#488);
#490=CARTESIAN_POINT('',(-3.220594099,2.737629104,12.975));
#491=VERTEX_POINT('',#490);
#492=CARTESIAN_POINT('',(-3.220594099,2.737629104,12.975));
#493=DIRECTION('',(-0.,-1.,-0.));
#494=VECTOR('',#493,0.489904583);
#495=LINE('',#492,#494);
#496=EDGE_CURVE('',#491,#460,#495,.T.);
#497=ORIENTED_EDGE('',*,*,#496,.F.);
#498=CARTESIAN_POINT('',(-3.220594099,2.737629104,12.925));
#499=VERTEX_POINT('',#498);
#500=CARTESIAN_POINT('',(-3.220594099,2.737629104,12.975));
#501=DIRECTION('',(0.,0.,-1.));
#502=VECTOR('',#501,0.05);
#503=LINE('',#500,#502);
#504=EDGE_CURVE('',#491,#499,#503,.T.);
#505=ORIENTED_EDGE('',*,*,#504,.T.);
#506=CARTESIAN_POINT('',(-3.220594099,2.737629104,12.925));
#507=DIRECTION('',(-0.,-1.,-0.));
#508=VECTOR('',#507,0.489904583);
#509=LINE('',#506,#508);
#510=EDGE_CURVE('',#499,#468,#509,.T.);
#511=ORIENTED_EDGE('',*,*,#510,.T.);
#512=ORIENTED_EDGE('',*,*,#473,.F.);
#513=EDGE_LOOP('',(#497,#505,#511,#512));
#514=FACE_BOUND('',#513,.T.);
#515=ADVANCED_FACE('',(#514),#489,.F.);
#516=CARTESIAN_POINT('',(-2.730689526,2.737629104,12.975));
#517=DIRECTION('',(-0.,-1.,-0.));
#518=DIRECTION('',(-1.,0.,0.));
#519=AXIS2_PLACEMENT_3D('',#516,#517,#518);
#520=PLANE('',#519);
#521=CARTESIAN_POINT('',(-2.730689526,2.737629104,12.975));
#522=VERTEX_POINT('',#521);
#523=CARTESIAN_POINT('',(-2.730689526,2.737629104,12.975));
#524=DIRECTION('',(-1.,0.,0.));
#525=VECTOR('',#524,0.489904573);
#526=LINE('',#523,#525);
#527=EDGE_CURVE('',#522,#491,#526,.T.);
#528=ORIENTED_EDGE('',*,*,#527,.F.);
#529=CARTESIAN_POINT('',(-2.730689526,2.737629104,12.925));
#530=VERTEX_POINT('',#529);
#531=CARTESIAN_POINT('',(-2.730689526,2.737629104,12.975));
#532=DIRECTION('',(0.,0.,-1.));
#533=VECTOR('',#532,0.05);
#534=LINE('',#531,#533);
#535=EDGE_CURVE('',#522,#530,#534,.T.);
#536=ORIENTED_EDGE('',*,*,#535,.T.);
#537=CARTESIAN_POINT('',(-2.730689526,2.737629104,12.925));
#538=DIRECTION('',(-1.,0.,0.));
#539=VECTOR('',#538,0.489904573);
#540=LINE('',#537,#539);
#541=EDGE_CURVE('',#530,#499,#540,.T.);
#542=ORIENTED_EDGE('',*,*,#541,.T.);
#543=ORIENTED_EDGE('',*,*,#504,.F.);
#544=EDGE_LOOP('',(#528,#536,#542,#543));
#545=FACE_BOUND('',#544,.T.);
#546=ADVANCED_FACE('',(#545),#520,.F.);
#547=CARTESIAN_POINT('',(-2.730689526,2.943904686,12.975));
#548=DIRECTION('',(1.,-0.,-0.));
#549=DIRECTION('',(-0.,-1.,-0.));
#550=AXIS2_PLACEMENT_3D('',#547,#548,#549);
#551=PLANE('',#550);
#552=CARTESIAN_POINT('',(-2.730689526,2.943904686,12.975));
#553=VERTEX_POINT('',#552);
#554=CARTESIAN_POINT('',(-2.730689526,2.943904686,12.975));
#555=DIRECTION('',(-0.,-1.,-0.));
#556=VECTOR('',#555,0.206275582);
#557=LINE('',#554,#556);
#558=EDGE_CURVE('',#553,#522,#557,.T.);
#559=ORIENTED_EDGE('',*,*,#558,.F.);
#560=CARTESIAN_POINT('',(-2.730689526,2.943904686,12.925));
#561=VERTEX_POINT('',#560);
#562=CARTESIAN_POINT('',(-2.730689526,2.943904686,12.975));
#563=DIRECTION('',(0.,0.,-1.));
#564=VECTOR('',#563,0.05);
#565=LINE('',#562,#564);
#566=EDGE_CURVE('',#553,#561,#565,.T.);
#567=ORIENTED_EDGE('',*,*,#566,.T.);
#568=CARTESIAN_POINT('',(-2.730689526,2.943904686,12.925));
#569=DIRECTION('',(-0.,-1.,-0.));
#570=VECTOR('',#569,0.206275582);
#571=LINE('',#568,#570);
#572=EDGE_CURVE('',#561,#530,#571,.T.);
#573=ORIENTED_EDGE('',*,*,#572,.T.);
#574=ORIENTED_EDGE('',*,*,#535,.F.);
#575=EDGE_LOOP('',(#559,#567,#573,#574));
#576=FACE_BOUND('',#575,.T.);
#577=ADVANCED_FACE('',(#576),#551,.F.);
#578=CARTESIAN_POINT('',(-3.220594099,2.943904686,12.975));
#579=DIRECTION('',(0.,1.,0.));
#580=DIRECTION('',(1.,-0.,-0.));
#581=AXIS2_PLACEMENT_3D('',#578,#579,#580);
#582=PLANE('',#581);
#583=CARTESIAN_POINT('',(-3.220594099,2.943904686,12.975));
#584=VERTEX_POINT('',#583);
#585=CARTESIAN_POINT('',(-3.220594099,2.943904686,12.975));
#586=DIRECTION('',(1.,-0.,-0.));
#587=VECTOR('',#586,0.489904573);
#588=LINE('',#585,#587);
#589=EDGE_CURVE('',#584,#553,#588,.T.);
#590=ORIENTED_EDGE('',*,*,#589,.F.);
#591=CARTESIAN_POINT('',(-3.220594099,2.943904686,12.925));
#592=VERTEX_POINT('',#591);
#593=CARTESIAN_POINT('',(-3.220594099,2.943904686,12.975));
#594=DIRECTION('',(0.,0.,-1.));
#595=VECTOR('',#594,0.05);
#596=LINE('',#593,#595);
#597=EDGE_CURVE('',#584,#592,#596,.T.);
#598=ORIENTED_EDGE('',*,*,#597,.T.);
#599=CARTESIAN_POINT('',(-3.220594099,2.943904686,12.925));
#600=DIRECTION('',(1.,-0.,-0.));
#601=VECTOR('',#600,0.489904573);
#602=LINE('',#599,#601);
#603=EDGE_CURVE('',#592,#561,#602,.T.);
#604=ORIENTED_EDGE('',*,*,#603,.T.);
#605=ORIENTED_EDGE('',*,*,#566,.F.);
#606=EDGE_LOOP('',(#590,#598,#604,#605));
#607=FACE_BOUND('',#606,.T.);
#608=ADVANCED_FACE('',(#607),#582,.F.);
#609=CARTESIAN_POINT('',(-3.220594099,3.437492836,12.975));
#610=DIRECTION('',(1.,-0.,-0.));
#611=DIRECTION('',(-0.,-1.,-0.));
#612=AXIS2_PLACEMENT_3D('',#609,#610,#611);
#613=PLANE('',#612);
#614=CARTESIAN_POINT('',(-3.220594099,3.437492836,12.975));
#615=VERTEX_POINT('',#614);
#616=CARTESIAN_POINT('',(-3.220594099,3.437492836,12.975));
#617=DIRECTION('',(-0.,-1.,-0.));
#618=VECTOR('',#617,0.49358815);
#619=LINE('',#616,#618);
#620=EDGE_CURVE('',#615,#584,#619,.T.);
#621=ORIENTED_EDGE('',*,*,#620,.F.);
#622=CARTESIAN_POINT('',(-3.220594099,3.437492836,12.925));
#623=VERTEX_POINT('',#622);
#624=CARTESIAN_POINT('',(-3.220594099,3.437492836,12.975));
#625=DIRECTION('',(0.,0.,-1.));
#626=VECTOR('',#625,0.05);
#627=LINE('',#624,#626);
#628=EDGE_CURVE('',#615,#623,#627,.T.);
#629=ORIENTED_EDGE('',*,*,#628,.T.);
#630=CARTESIAN_POINT('',(-3.220594099,3.437492836,12.925));
#631=DIRECTION('',(-0.,-1.,-0.));
#632=VECTOR('',#631,0.49358815);
#633=LINE('',#630,#632);
#634=EDGE_CURVE('',#623,#592,#633,.T.);
#635=ORIENTED_EDGE('',*,*,#634,.T.);
#636=ORIENTED_EDGE('',*,*,#597,.F.);
#637=EDGE_LOOP('',(#621,#629,#635,#636));
#638=FACE_BOUND('',#637,.T.);
#639=ADVANCED_FACE('',(#638),#613,.F.);
#640=CARTESIAN_POINT('',(-3.429325318,3.437492836,12.975));
#641=DIRECTION('',(0.,1.,0.));
#642=DIRECTION('',(1.,-0.,-0.));
#643=AXIS2_PLACEMENT_3D('',#640,#641,#642);
#644=PLANE('',#643);
#645=CARTESIAN_POINT('',(-3.429325318,3.437492836,12.975));
#646=DIRECTION('',(1.,-0.,-0.));
#647=VECTOR('',#646,0.208731219);
#648=LINE('',#645,#647);
#649=EDGE_CURVE('',#298,#615,#648,.T.);
#650=ORIENTED_EDGE('',*,*,#649,.F.);
#651=ORIENTED_EDGE('',*,*,#325,.T.);
#652=CARTESIAN_POINT('',(-3.429325318,3.437492836,12.925));
#653=DIRECTION('',(1.,-0.,-0.));
#654=VECTOR('',#653,0.208731219);
#655=LINE('',#652,#654);
#656=EDGE_CURVE('',#314,#623,#655,.T.);
#657=ORIENTED_EDGE('',*,*,#656,.T.);
#658=ORIENTED_EDGE('',*,*,#628,.F.);
#659=EDGE_LOOP('',(#650,#651,#657,#658));
#660=FACE_BOUND('',#659,.T.);
#661=ADVANCED_FACE('',(#660),#644,.F.);
#662=CARTESIAN_POINT('',(-3.32495975,2.842608679,12.925));
#663=DIRECTION('',(0.,0.,-1.));
#664=DIRECTION('',(-0.,-1.,-0.));
#665=AXIS2_PLACEMENT_3D('',#662,#663,#664);
#666=PLANE('',#665);
#667=ORIENTED_EDGE('',*,*,#656,.F.);
#668=ORIENTED_EDGE('',*,*,#319,.F.);
#669=ORIENTED_EDGE('',*,*,#355,.F.);
#670=ORIENTED_EDGE('',*,*,#386,.F.);
#671=ORIENTED_EDGE('',*,*,#417,.F.);
#672=ORIENTED_EDGE('',*,*,#448,.F.);
#673=ORIENTED_EDGE('',*,*,#479,.F.);
#674=ORIENTED_EDGE('',*,*,#510,.F.);
#675=ORIENTED_EDGE('',*,*,#541,.F.);
#676=ORIENTED_EDGE('',*,*,#572,.F.);
#677=ORIENTED_EDGE('',*,*,#603,.F.);
#678=ORIENTED_EDGE('',*,*,#634,.F.);
#679=EDGE_LOOP('',(#667,#668,#669,#670,#671,#672,#673,#674,#675,#676,#677,#678));
#680=FACE_BOUND('',#679,.T.);
#681=ADVANCED_FACE('',(#680),#666,.F.);
#682=OVER_RIDING_STYLED_ITEM('',(#288),#681,#54);
#683=CARTESIAN_POINT('',(-3.751446765,2.500003489,3.775));
#684=CARTESIAN_POINT('',(-3.751460354,2.500003554,3.775));
#685=CARTESIAN_POINT('',(-3.751473944,2.500003621,3.775));
#686=CARTESIAN_POINT('',(-3.751487533,2.500003688,3.775));
#687=CARTESIAN_POINT('',(-3.927204417,2.500874981,3.775));
#688=CARTESIAN_POINT('',(-4.050843906,2.62573386,3.775));
#689=CARTESIAN_POINT('',(-4.049996511,2.801446765,3.775));
#690=CARTESIAN_POINT('',(-4.049996446,2.801460354,3.775));
#691=CARTESIAN_POINT('',(-4.049996379,2.801473944,3.775));
#692=CARTESIAN_POINT('',(-4.049996312,2.801487533,3.775));
#693=CARTESIAN_POINT('',(-4.049125019,2.977204417,3.775));
#694=CARTESIAN_POINT('',(-3.92426614,3.100843906,3.775));
#695=CARTESIAN_POINT('',(-3.748553235,3.099996511,3.775));
#696=CARTESIAN_POINT('',(-3.748539646,3.099996446,3.775));
#697=CARTESIAN_POINT('',(-3.748526056,3.099996379,3.775));
#698=CARTESIAN_POINT('',(-3.748512467,3.099996312,3.775));
#699=CARTESIAN_POINT('',(-3.572795583,3.099125019,3.775));
#700=CARTESIAN_POINT('',(-3.449156094,2.97426614,3.775));
#701=CARTESIAN_POINT('',(-3.450003489,2.798553235,3.775));
#702=CARTESIAN_POINT('',(-3.450003554,2.798539646,3.775));
#703=CARTESIAN_POINT('',(-3.450003621,2.798526056,3.775));
#704=CARTESIAN_POINT('',(-3.450003688,2.798512467,3.775));
#705=CARTESIAN_POINT('',(-3.450874981,2.622795583,3.775));
#706=CARTESIAN_POINT('',(-3.57573386,2.499156094,3.775));
#707=CARTESIAN_POINT('',(-3.751446765,2.500003489,3.775));
#708=CARTESIAN_POINT('',(-3.752442497,2.293531729,3.875));
#709=CARTESIAN_POINT('',(-3.752465439,2.29353184,3.875));
#710=CARTESIAN_POINT('',(-3.752488381,2.293531952,3.875));
#711=CARTESIAN_POINT('',(-3.752511323,2.293532066,3.875));
#712=CARTESIAN_POINT('',(-4.049164862,2.295003023,3.875));
#713=CARTESIAN_POINT('',(-4.257898882,2.505795677,3.875));
#714=CARTESIAN_POINT('',(-4.256468271,2.802442497,3.875));
#715=CARTESIAN_POINT('',(-4.25646816,2.802465439,3.875));
#716=CARTESIAN_POINT('',(-4.256468048,2.802488381,3.875));
#717=CARTESIAN_POINT('',(-4.256467934,2.802511323,3.875));
#718=CARTESIAN_POINT('',(-4.254996977,3.099164862,3.875));
#719=CARTESIAN_POINT('',(-4.044204323,3.307898882,3.875));
#720=CARTESIAN_POINT('',(-3.747557503,3.306468271,3.875));
#721=CARTESIAN_POINT('',(-3.747534561,3.30646816,3.875));
#722=CARTESIAN_POINT('',(-3.747511619,3.306468048,3.875));
#723=CARTESIAN_POINT('',(-3.747488677,3.306467934,3.875));
#724=CARTESIAN_POINT('',(-3.450835138,3.304996977,3.875));
#725=CARTESIAN_POINT('',(-3.242101118,3.094204323,3.875));
#726=CARTESIAN_POINT('',(-3.243531729,2.797557503,3.875));
#727=CARTESIAN_POINT('',(-3.24353184,2.797534561,3.875));
#728=CARTESIAN_POINT('',(-3.243531952,2.797511619,3.875));
#729=CARTESIAN_POINT('',(-3.243532066,2.797488677,3.875));
#730=CARTESIAN_POINT('',(-3.245003023,2.500835138,3.875));
#731=CARTESIAN_POINT('',(-3.455795677,2.292101118,3.875));
#732=CARTESIAN_POINT('',(-3.752442497,2.293531729,3.875));
#733=CARTESIAN_POINT('',(-3.753548866,2.064118663,3.875));
#734=CARTESIAN_POINT('',(-3.7535822,2.064118824,3.875));
#735=CARTESIAN_POINT('',(-3.753615534,2.064118987,3.875));
#736=CARTESIAN_POINT('',(-3.753648868,2.064119152,3.875));
#737=CARTESIAN_POINT('',(-4.184676467,2.066256404,3.875));
#738=CARTESIAN_POINT('',(-4.487959967,2.37253103,3.875));
#739=CARTESIAN_POINT('',(-4.485881337,2.803548866,3.875));
#740=CARTESIAN_POINT('',(-4.485881176,2.8035822,3.875));
#741=CARTESIAN_POINT('',(-4.485881013,2.803615534,3.875));
#742=CARTESIAN_POINT('',(-4.485880848,2.803648868,3.875));
#743=CARTESIAN_POINT('',(-4.483743596,3.234676467,3.875));
#744=CARTESIAN_POINT('',(-4.17746897,3.537959967,3.875));
#745=CARTESIAN_POINT('',(-3.746451134,3.535881337,3.875));
#746=CARTESIAN_POINT('',(-3.7464178,3.535881176,3.875));
#747=CARTESIAN_POINT('',(-3.746384466,3.535881013,3.875));
#748=CARTESIAN_POINT('',(-3.746351132,3.535880848,3.875));
#749=CARTESIAN_POINT('',(-3.315323533,3.533743596,3.875));
#750=CARTESIAN_POINT('',(-3.012040033,3.22746897,3.875));
#751=CARTESIAN_POINT('',(-3.014118663,2.796451134,3.875));
#752=CARTESIAN_POINT('',(-3.014118824,2.7964178,3.875));
#753=CARTESIAN_POINT('',(-3.014118987,2.796384466,3.875));
#754=CARTESIAN_POINT('',(-3.014119152,2.796351132,3.875));
#755=CARTESIAN_POINT('',(-3.016256404,2.365323533,3.875));
#756=CARTESIAN_POINT('',(-3.32253103,2.062040033,3.875));
#757=CARTESIAN_POINT('',(-3.753548866,2.064118663,3.875));
#758=(BOUNDED_SURFACE()
B_SPLINE_SURFACE(2,3,((#683,#684,#685,#686,#687,#688,#689,#690,#691,#692,#693,#694,#695,#696,#697,#698,#699,#700,#701,#702,#703,#704,#705,#706,#707),(#708,#709,#710,#711,#712,#713,#714,#715,#716,#717,#718,#719,#720,#721,#722,#723,#724,#725,#726,#727,#728,#729,#730,#731,#732),(#733,#734,#735,#736,#737,#738,#739,#740,#741,#742,#743,#744,#745,#746,#747,#748,#749,#750,#751,#752,#753,#754,#755,#756,#757)),.UNSPECIFIED.,.F.,.T.,.U.)
B_SPLINE_SURFACE_WITH_KNOTS((3,3),(4,3,3,3,3,3,3,3,4),(-2.021823139,-1.570796327),(-3.141592654,-3.141441718,-1.570796327,-1.570645391,0.,0.000150936,1.570796327,1.570947263,3.141592654),.UNSPECIFIED.)
GEOMETRIC_REPRESENTATION_ITEM()
RATIONAL_B_SPLINE_SURFACE(((1.,0.999981238,0.999962477,0.999943718,0.804737856,0.804756617,1.,0.999981238,0.999962477,0.999943718,0.804737856,0.804756617,1.,0.999981238,0.999962477,0.999943718,0.804737856,0.804756617,1.,0.999981238,0.999962477,0.999943718,0.804737856,0.804756617,1.),(0.974679434,0.974661147,0.974642861,0.974624578,0.784361438,0.784379724,0.974679434,0.974661147,0.974642861,0.974624578,0.784361438,0.784379724,0.974679434,0.974661147,0.974642861,0.974624578,0.784361438,0.784379724,0.974679434,0.974661147,0.974642861,0.974624578,0.784361438,0.784379724,0.974679434),(1.,0.999981238,0.999962477,0.999943718,0.804737856,0.804756617,1.,0.999981238,0.999962477,0.999943718,0.804737856,0.804756617,1.,0.999981238,0.999962477,0.999943718,0.804737856,0.804756617,1.,0.999981238,0.999962477,0.999943718,0.804737856,0.804756617,1.)))
REPRESENTATION_ITEM('')
SURFACE()
);
#759=CARTESIAN_POINT('',(-3.753548866,2.064118663,3.875));
#760=VERTEX_POINT('',#759);
#761=CARTESIAN_POINT('',(-3.751446765,2.500003489,3.775));
#762=VERTEX_POINT('',#761);
#763=CARTESIAN_POINT('',(-3.753548866,2.064118663,3.875));
#764=CARTESIAN_POINT('',(-3.752442497,2.293531729,3.875));
#765=CARTESIAN_POINT('',(-3.751446765,2.500003489,3.775));
#766=(BOUNDED_CURVE()
B_SPLINE_CURVE(2,(#763,#764,#765),.UNSPECIFIED.,.F.,.F.)
B_SPLINE_CURVE_WITH_KNOTS((3,3),(-2.021823139,-1.570796327),.UNSPECIFIED.)
CURVE()
GEOMETRIC_REPRESENTATION_ITEM()
RATIONAL_B_SPLINE_CURVE((1.,0.974679434,1.))
REPRESENTATION_ITEM(''));
#767=EDGE_CURVE('',#760,#762,#766,.T.);
#768=ORIENTED_EDGE('',*,*,#767,.T.);
#769=CARTESIAN_POINT('',(-3.751446765,2.500003489,3.775));
#770=CARTESIAN_POINT('',(-3.786801693,2.500173991,3.775));
#771=CARTESIAN_POINT('',(-3.824914164,2.50680149,3.775));
#772=CARTESIAN_POINT('',(-3.861772314,2.5215993,3.775));
#773=CARTESIAN_POINT('',(-3.898630465,2.53639711,3.775));
#774=CARTESIAN_POINT('',(-3.934004853,2.559463219,3.775));
#775=CARTESIAN_POINT('',(-3.963152585,2.58889345,3.775));
#776=CARTESIAN_POINT('',(-3.992300317,2.618323681,3.775));
#777=CARTESIAN_POINT('',(-4.015024168,2.653918896,3.775));
#778=CARTESIAN_POINT('',(-4.029465793,2.690918057,3.775));
#779=CARTESIAN_POINT('',(-4.043907419,2.727917218,3.775));
#780=CARTESIAN_POINT('',(-4.050167014,2.766091837,3.775));
#781=CARTESIAN_POINT('',(-4.049996511,2.801446765,3.775));
#782=CARTESIAN_POINT('',(-4.049826009,2.836801693,3.775));
#783=CARTESIAN_POINT('',(-4.04319851,2.874914164,3.775));
#784=CARTESIAN_POINT('',(-4.0284007,2.911772314,3.775));
#785=CARTESIAN_POINT('',(-4.01360289,2.948630465,3.775));
#786=CARTESIAN_POINT('',(-3.990536781,2.984004853,3.775));
#787=CARTESIAN_POINT('',(-3.96110655,3.013152585,3.775));
#788=CARTESIAN_POINT('',(-3.931676319,3.042300317,3.775));
#789=CARTESIAN_POINT('',(-3.896081104,3.065024168,3.775));
#790=CARTESIAN_POINT('',(-3.859081943,3.079465793,3.775));
#791=CARTESIAN_POINT('',(-3.822082782,3.093907419,3.775));
#792=CARTESIAN_POINT('',(-3.783908163,3.100167014,3.775));
#793=CARTESIAN_POINT('',(-3.748553235,3.099996511,3.775));
#794=CARTESIAN_POINT('',(-3.713198307,3.099826009,3.775));
#795=CARTESIAN_POINT('',(-3.675085836,3.09319851,3.775));
#796=CARTESIAN_POINT('',(-3.638227686,3.0784007,3.775));
#797=CARTESIAN_POINT('',(-3.601369535,3.06360289,3.775));
#798=CARTESIAN_POINT('',(-3.565995147,3.040536781,3.775));
#799=CARTESIAN_POINT('',(-3.536847415,3.01110655,3.775));
#800=CARTESIAN_POINT('',(-3.507699683,2.981676319,3.775));
#801=CARTESIAN_POINT('',(-3.484975832,2.946081104,3.775));
#802=CARTESIAN_POINT('',(-3.470534207,2.909081943,3.775));
#803=CARTESIAN_POINT('',(-3.456092581,2.872082782,3.775));
#804=CARTESIAN_POINT('',(-3.449832986,2.833908163,3.775));
#805=CARTESIAN_POINT('',(-3.450003489,2.798553235,3.775));
#806=CARTESIAN_POINT('',(-3.450173991,2.763198307,3.775));
#807=CARTESIAN_POINT('',(-3.45680149,2.725085836,3.775));
#808=CARTESIAN_POINT('',(-3.4715993,2.688227686,3.775));
#809=CARTESIAN_POINT('',(-3.48639711,2.651369535,3.775));
#810=CARTESIAN_POINT('',(-3.509463219,2.615995147,3.775));
#811=CARTESIAN_POINT('',(-3.53889345,2.586847415,3.775));
#812=CARTESIAN_POINT('',(-3.568323681,2.557699683,3.775));
#813=CARTESIAN_POINT('',(-3.603918896,2.534975832,3.775));
#814=CARTESIAN_POINT('',(-3.640918057,2.520534207,3.775));
#815=CARTESIAN_POINT('',(-3.677917218,2.506092581,3.775));
#816=CARTESIAN_POINT('',(-3.716091837,2.499832986,3.775));
#817=CARTESIAN_POINT('',(-3.751446765,2.500003489,3.775));
#818=B_SPLINE_CURVE_WITH_KNOTS('',3,(#769,#770,#771,#772,#773,#774,#775,#776,#777,#778,#779,#780,#781,#782,#783,#784,#785,#786,#787,#788,#789,#790,#791,#792,#793,#794,
#795,#796,#797,#798,#799,#800,#801,#802,#803,#804,#805,#806,#807,#808,#809,#810,#811,#812,#813,#814,#815,#816,#817),.UNSPECIFIED.,.T.,.F.,(4,3,3,3,3,3,3,3,3,3,3,3,3,3,3,3,4),(225.276312885,247.776312885,270.276312885,292.776312885,315.276312885,337.776312885,360.276312885,382.776312885,405.276312885,427.776312885,450.276312885,472.776312885,495.276312885,517.776312885,540.276312885,562.776312885,585.276312885),.UNSPECIFIED.);
#819=EDGE_CURVE('',#762,#762,#818,.T.);
#820=ORIENTED_EDGE('',*,*,#819,.F.);
#821=ORIENTED_EDGE('',*,*,#767,.F.);
#822=CARTESIAN_POINT('',(-3.753548866,2.064118663,3.875));
#823=CARTESIAN_POINT('',(-3.7535822,2.064118824,3.875));
#824=CARTESIAN_POINT('',(-3.753615534,2.064118987,3.875));
#825=CARTESIAN_POINT('',(-3.753648868,2.064119152,3.875));
#826=CARTESIAN_POINT('',(-4.184676467,2.066256404,3.875));
#827=CARTESIAN_POINT('',(-4.487959967,2.37253103,3.875));
#828=CARTESIAN_POINT('',(-4.485881337,2.803548866,3.875));
#829=CARTESIAN_POINT('',(-4.485881176,2.8035822,3.875));
#830=CARTESIAN_POINT('',(-4.485881013,2.803615534,3.875));
#831=CARTESIAN_POINT('',(-4.485880848,2.803648868,3.875));
#832=CARTESIAN_POINT('',(-4.483743596,3.234676467,3.875));
#833=CARTESIAN_POINT('',(-4.17746897,3.537959967,3.875));
#834=CARTESIAN_POINT('',(-3.746451134,3.535881337,3.875));
#835=CARTESIAN_POINT('',(-3.7464178,3.535881176,3.875));
#836=CARTESIAN_POINT('',(-3.746384466,3.535881013,3.875));
#837=CARTESIAN_POINT('',(-3.746351132,3.535880848,3.875));
#838=CARTESIAN_POINT('',(-3.315323533,3.533743596,3.875));
#839=CARTESIAN_POINT('',(-3.012040033,3.22746897,3.875));
#840=CARTESIAN_POINT('',(-3.014118663,2.796451134,3.875));
#841=CARTESIAN_POINT('',(-3.014118824,2.7964178,3.875));
#842=CARTESIAN_POINT('',(-3.014118987,2.796384466,3.875));
#843=CARTESIAN_POINT('',(-3.014119152,2.796351132,3.875));
#844=CARTESIAN_POINT('',(-3.016256404,2.365323533,3.875));
#845=CARTESIAN_POINT('',(-3.32253103,2.062040033,3.875));
#846=CARTESIAN_POINT('',(-3.753548866,2.064118663,3.875));
#847=(BOUNDED_CURVE()
B_SPLINE_CURVE(3,(#822,#823,#824,#825,#826,#827,#828,#829,#830,#831,#832,#833,#834,#835,#836,#837,#838,#839,#840,#841,#842,#843,#844,#845,#846),.UNSPECIFIED.,.T.,.F.)
B_SPLINE_CURVE_WITH_KNOTS((4,3,3,3,3,3,3,3,4),(-3.141592654,-3.141441718,-1.570796327,-1.570645391,0.,0.000150936,1.570796327,1.570947263,3.141592654),.UNSPECIFIED.)
CURVE()
GEOMETRIC_REPRESENTATION_ITEM()
RATIONAL_B_SPLINE_CURVE((1.,0.999981238,0.999962477,0.999943718,0.804737856,0.804756617,1.,0.999981238,0.999962477,0.999943718,0.804737856,0.804756617,1.,0.999981238,0.999962477,0.999943718,0.804737856,0.804756617,1.,0.999981238,0.999962477,0.999943718,0.804737856,0.804756617,1.))
REPRESENTATION_ITEM(''));
#848=EDGE_CURVE('',#760,#760,#847,.T.);
#849=ORIENTED_EDGE('',*,*,#848,.T.);
#850=EDGE_LOOP('',(#768,#820,#821,#849));
#851=FACE_BOUND('',#850,.T.);
#852=ADVANCED_FACE('',(#851),#758,.T.);
#853=CARTESIAN_POINT('',(-0.,2.8,3.875));
#854=DIRECTION('',(0.,0.,-1.));
#855=DIRECTION('',(-1.,0.,0.));
#856=AXIS2_PLACEMENT_3D('',#853,#854,#855);
#857=PLANE('',#856);
#858=CARTESIAN_POINT('',(5.225,2.8,3.875));
#859=VERTEX_POINT('',#858);
#860=CARTESIAN_POINT('',(-0.,8.025,3.875));
#861=VERTEX_POINT('',#860);
#862=CARTESIAN_POINT('',(-0.,2.8,3.875));
#863=DIRECTION('',(-0.,-0.,1.));
#864=DIRECTION('',(0.,1.,0.));
#865=AXIS2_PLACEMENT_3D('',#862,#863,#864);
#866=CIRCLE('',#865,5.225);
#867=EDGE_CURVE('',#859,#861,#866,.T.);
#868=ORIENTED_EDGE('',*,*,#867,.F.);
#869=CARTESIAN_POINT('',(-0.,2.8,3.875));
#870=DIRECTION('',(-0.,-0.,1.));
#871=DIRECTION('',(0.,1.,0.));
#872=AXIS2_PLACEMENT_3D('',#869,#870,#871);
#873=CIRCLE('',#872,5.225);
#874=EDGE_CURVE('',#861,#859,#873,.T.);
#875=ORIENTED_EDGE('',*,*,#874,.F.);
#876=EDGE_LOOP('',(#868,#875));
#877=FACE_BOUND('',#876,.T.);
#878=CARTESIAN_POINT('',(3.746451134,2.064118663,3.875));
#879=VERTEX_POINT('',#878);
#880=CARTESIAN_POINT('',(3.746451134,2.064118663,3.875));
#881=CARTESIAN_POINT('',(3.7464178,2.064118824,3.875));
#882=CARTESIAN_POINT('',(3.746384466,2.064118987,3.875));
#883=CARTESIAN_POINT('',(3.746351132,2.064119152,3.875));
#884=CARTESIAN_POINT('',(3.315323533,2.066256404,3.875));
#885=CARTESIAN_POINT('',(3.012040033,2.37253103,3.875));
#886=CARTESIAN_POINT('',(3.014118663,2.803548866,3.875));
#887=CARTESIAN_POINT('',(3.014118824,2.8035822,3.875));
#888=CARTESIAN_POINT('',(3.014118987,2.803615534,3.875));
#889=CARTESIAN_POINT('',(3.014119152,2.803648868,3.875));
#890=CARTESIAN_POINT('',(3.016256404,3.234676467,3.875));
#891=CARTESIAN_POINT('',(3.32253103,3.537959967,3.875));
#892=CARTESIAN_POINT('',(3.753548866,3.535881337,3.875));
#893=CARTESIAN_POINT('',(3.7535822,3.535881176,3.875));
#894=CARTESIAN_POINT('',(3.753615534,3.535881013,3.875));
#895=CARTESIAN_POINT('',(3.753648868,3.535880848,3.875));
#896=CARTESIAN_POINT('',(4.184676467,3.533743596,3.875));
#897=CARTESIAN_POINT('',(4.487959967,3.22746897,3.875));
#898=CARTESIAN_POINT('',(4.485881337,2.796451134,3.875));
#899=CARTESIAN_POINT('',(4.485881176,2.7964178,3.875));
#900=CARTESIAN_POINT('',(4.485881013,2.796384466,3.875));
#901=CARTESIAN_POINT('',(4.485880848,2.796351132,3.875));
#902=CARTESIAN_POINT('',(4.483743596,2.365323533,3.875));
#903=CARTESIAN_POINT('',(4.17746897,2.062040033,3.875));
#904=CARTESIAN_POINT('',(3.746451134,2.064118663,3.875));
#905=(BOUNDED_CURVE()
B_SPLINE_CURVE(3,(#880,#881,#882,#883,#884,#885,#886,#887,#888,#889,#890,#891,#892,#893,#894,#895,#896,#897,#898,#899,#900,#901,#902,#903,#904),.UNSPECIFIED.,.T.,.F.)
B_SPLINE_CURVE_WITH_KNOTS((4,3,3,3,3,3,3,3,4),(-3.141592654,-3.141441718,-1.570796327,-1.570645391,0.,0.000150936,1.570796327,1.570947263,3.141592654),.UNSPECIFIED.)
CURVE()
GEOMETRIC_REPRESENTATION_ITEM()
RATIONAL_B_SPLINE_CURVE((1.,0.999981238,0.999962477,0.999943718,0.804737856,0.804756617,1.,0.999981238,0.999962477,0.999943718,0.804737856,0.804756617,1.,0.999981238,0.999962477,0.999943718,0.804737856,0.804756617,1.,0.999981238,0.999962477,0.999943718,0.804737856,0.804756617,1.))
REPRESENTATION_ITEM(''));
#906=EDGE_CURVE('',#879,#879,#905,.T.);
#907=ORIENTED_EDGE('',*,*,#906,.F.);
#908=EDGE_LOOP('',(#907));
#909=FACE_BOUND('',#908,.T.);
#910=ORIENTED_EDGE('',*,*,#848,.F.);
#911=EDGE_LOOP('',(#910));
#912=FACE_BOUND('',#911,.T.);
#913=ADVANCED_FACE('',(#877,#909,#912),#857,.T.);
#914=CARTESIAN_POINT('',(3.748553235,2.500003489,3.775));
#915=CARTESIAN_POINT('',(3.748539646,2.500003554,3.775));
#916=CARTESIAN_POINT('',(3.748526056,2.500003621,3.775));
#917=CARTESIAN_POINT('',(3.748512467,2.500003688,3.775));
#918=CARTESIAN_POINT('',(3.572795583,2.500874981,3.775));
#919=CARTESIAN_POINT('',(3.449156094,2.62573386,3.775));
#920=CARTESIAN_POINT('',(3.450003489,2.801446765,3.775));
#921=CARTESIAN_POINT('',(3.450003554,2.801460354,3.775));
#922=CARTESIAN_POINT('',(3.450003621,2.801473944,3.775));
#923=CARTESIAN_POINT('',(3.450003688,2.801487533,3.775));
#924=CARTESIAN_POINT('',(3.450874981,2.977204417,3.775));
#925=CARTESIAN_POINT('',(3.57573386,3.100843906,3.775));
#926=CARTESIAN_POINT('',(3.751446765,3.099996511,3.775));
#927=CARTESIAN_POINT('',(3.751460354,3.099996446,3.775));
#928=CARTESIAN_POINT('',(3.751473944,3.099996379,3.775));
#929=CARTESIAN_POINT('',(3.751487533,3.099996312,3.775));
#930=CARTESIAN_POINT('',(3.927204417,3.099125019,3.775));
#931=CARTESIAN_POINT('',(4.050843906,2.97426614,3.775));
#932=CARTESIAN_POINT('',(4.049996511,2.798553235,3.775));
#933=CARTESIAN_POINT('',(4.049996446,2.798539646,3.775));
#934=CARTESIAN_POINT('',(4.049996379,2.798526056,3.775));
#935=CARTESIAN_POINT('',(4.049996312,2.798512467,3.775));
#936=CARTESIAN_POINT('',(4.049125019,2.622795583,3.775));
#937=CARTESIAN_POINT('',(3.92426614,2.499156094,3.775));
#938=CARTESIAN_POINT('',(3.748553235,2.500003489,3.775));
#939=CARTESIAN_POINT('',(3.747557503,2.293531729,3.875));
#940=CARTESIAN_POINT('',(3.747534561,2.29353184,3.875));
#941=CARTESIAN_POINT('',(3.747511619,2.293531952,3.875));
#942=CARTESIAN_POINT('',(3.747488677,2.293532066,3.875));
#943=CARTESIAN_POINT('',(3.450835138,2.295003023,3.875));
#944=CARTESIAN_POINT('',(3.242101118,2.505795677,3.875));
#945=CARTESIAN_POINT('',(3.243531729,2.802442497,3.875));
#946=CARTESIAN_POINT('',(3.24353184,2.802465439,3.875));
#947=CARTESIAN_POINT('',(3.243531952,2.802488381,3.875));
#948=CARTESIAN_POINT('',(3.243532066,2.802511323,3.875));
#949=CARTESIAN_POINT('',(3.245003023,3.099164862,3.875));
#950=CARTESIAN_POINT('',(3.455795677,3.307898882,3.875));
#951=CARTESIAN_POINT('',(3.752442497,3.306468271,3.875));
#952=CARTESIAN_POINT('',(3.752465439,3.30646816,3.875));
#953=CARTESIAN_POINT('',(3.752488381,3.306468048,3.875));
#954=CARTESIAN_POINT('',(3.752511323,3.306467934,3.875));
#955=CARTESIAN_POINT('',(4.049164862,3.304996977,3.875));
#956=CARTESIAN_POINT('',(4.257898882,3.094204323,3.875));
#957=CARTESIAN_POINT('',(4.256468271,2.797557503,3.875));
#958=CARTESIAN_POINT('',(4.25646816,2.797534561,3.875));
#959=CARTESIAN_POINT('',(4.256468048,2.797511619,3.875));
#960=CARTESIAN_POINT('',(4.256467934,2.797488677,3.875));
#961=CARTESIAN_POINT('',(4.254996977,2.500835138,3.875));
#962=CARTESIAN_POINT('',(4.044204323,2.292101118,3.875));
#963=CARTESIAN_POINT('',(3.747557503,2.293531729,3.875));
#964=CARTESIAN_POINT('',(3.746451134,2.064118663,3.875));
#965=CARTESIAN_POINT('',(3.7464178,2.064118824,3.875));
#966=CARTESIAN_POINT('',(3.746384466,2.064118987,3.875));
#967=CARTESIAN_POINT('',(3.746351132,2.064119152,3.875));
#968=CARTESIAN_POINT('',(3.315323533,2.066256404,3.875));
#969=CARTESIAN_POINT('',(3.012040033,2.37253103,3.875));
#970=CARTESIAN_POINT('',(3.014118663,2.803548866,3.875));
#971=CARTESIAN_POINT('',(3.014118824,2.8035822,3.875));
#972=CARTESIAN_POINT('',(3.014118987,2.803615534,3.875));
#973=CARTESIAN_POINT('',(3.014119152,2.803648868,3.875));
#974=CARTESIAN_POINT('',(3.016256404,3.234676467,3.875));
#975=CARTESIAN_POINT('',(3.32253103,3.537959967,3.875));
#976=CARTESIAN_POINT('',(3.753548866,3.535881337,3.875));
#977=CARTESIAN_POINT('',(3.7535822,3.535881176,3.875));
#978=CARTESIAN_POINT('',(3.753615534,3.535881013,3.875));
#979=CARTESIAN_POINT('',(3.753648868,3.535880848,3.875));
#980=CARTESIAN_POINT('',(4.184676467,3.533743596,3.875));
#981=CARTESIAN_POINT('',(4.487959967,3.22746897,3.875));
#982=CARTESIAN_POINT('',(4.485881337,2.796451134,3.875));
#983=CARTESIAN_POINT('',(4.485881176,2.7964178,3.875));
#984=CARTESIAN_POINT('',(4.485881013,2.796384466,3.875));
#985=CARTESIAN_POINT('',(4.485880848,2.796351132,3.875));
#986=CARTESIAN_POINT('',(4.483743596,2.365323533,3.875));
#987=CARTESIAN_POINT('',(4.17746897,2.062040033,3.875));
#988=CARTESIAN_POINT('',(3.746451134,2.064118663,3.875));
#989=(BOUNDED_SURFACE()
B_SPLINE_SURFACE(2,3,((#914,#915,#916,#917,#918,#919,#920,#921,#922,#923,#924,#925,#926,#927,#928,#929,#930,#931,#932,#933,#934,#935,#936,#937,#938),(#939,#940,#941,#942,#943,#944,#945,#946,#947,#948,#949,#950,#951,#952,#953,#954,#955,#956,#957,#958,#959,#960,#961,#962,#963),(#964,#965,#966,#967,#968,#969,#970,#971,#972,#973,#974,#975,#976,#977,#978,#979,#980,#981,#982,#983,#984,#985,#986,#987,#988)),.UNSPECIFIED.,.F.,.T.,.U.)
B_SPLINE_SURFACE_WITH_KNOTS((3,3),(4,3,3,3,3,3,3,3,4),(-2.021823139,-1.570796327),(-3.141592654,-3.141441718,-1.570796327,-1.570645391,0.,0.000150936,1.570796327,1.570947263,3.141592654),.UNSPECIFIED.)
GEOMETRIC_REPRESENTATION_ITEM()
RATIONAL_B_SPLINE_SURFACE(((1.,0.999981238,0.999962477,0.999943718,0.804737856,0.804756617,1.,0.999981238,0.999962477,0.999943718,0.804737856,0.804756617,1.,0.999981238,0.999962477,0.999943718,0.804737856,0.804756617,1.,0.999981238,0.999962477,0.999943718,0.804737856,0.804756617,1.),(0.974679434,0.974661147,0.974642861,0.974624578,0.784361438,0.784379724,0.974679434,0.974661147,0.974642861,0.974624578,0.784361438,0.784379724,0.974679434,0.974661147,0.974642861,0.974624578,0.784361438,0.784379724,0.974679434,0.974661147,0.974642861,0.974624578,0.784361438,0.784379724,0.974679434),(1.,0.999981238,0.999962477,0.999943718,0.804737856,0.804756617,1.,0.999981238,0.999962477,0.999943718,0.804737856,0.804756617,1.,0.999981238,0.999962477,0.999943718,0.804737856,0.804756617,1.,0.999981238,0.999962477,0.999943718,0.804737856,0.804756617,1.)))
REPRESENTATION_ITEM('')
SURFACE()
);
#990=CARTESIAN_POINT('',(3.748553235,2.500003489,3.775));
#991=VERTEX_POINT('',#990);
#992=CARTESIAN_POINT('',(3.746451134,2.064118663,3.875));
#993=CARTESIAN_POINT('',(3.747557503,2.293531729,3.875));
#994=CARTESIAN_POINT('',(3.748553235,2.500003489,3.775));
#995=(BOUNDED_CURVE()
B_SPLINE_CURVE(2,(#992,#993,#994),.UNSPECIFIED.,.F.,.F.)
B_SPLINE_CURVE_WITH_KNOTS((3,3),(-2.021823139,-1.570796327),.UNSPECIFIED.)
CURVE()
GEOMETRIC_REPRESENTATION_ITEM()
RATIONAL_B_SPLINE_CURVE((1.,0.974679434,1.))
REPRESENTATION_ITEM(''));
#996=EDGE_CURVE('',#879,#991,#995,.T.);
#997=ORIENTED_EDGE('',*,*,#996,.T.);
#998=CARTESIAN_POINT('',(3.748553235,2.500003489,3.775));
#999=CARTESIAN_POINT('',(3.713198307,2.500173991,3.775));
#1000=CARTESIAN_POINT('',(3.675085836,2.50680149,3.775));
#1001=CARTESIAN_POINT('',(3.638227686,2.5215993,3.775));
#1002=CARTESIAN_POINT('',(3.601369535,2.53639711,3.775));
#1003=CARTESIAN_POINT('',(3.565995147,2.559463219,3.775));
#1004=CARTESIAN_POINT('',(3.536847415,2.58889345,3.775));
#1005=CARTESIAN_POINT('',(3.507699683,2.618323681,3.775));
#1006=CARTESIAN_POINT('',(3.484975832,2.653918896,3.775));
#1007=CARTESIAN_POINT('',(3.470534207,2.690918057,3.775));
#1008=CARTESIAN_POINT('',(3.456092581,2.727917218,3.775));
#1009=CARTESIAN_POINT('',(3.449832986,2.766091837,3.775));
#1010=CARTESIAN_POINT('',(3.450003489,2.801446765,3.775));
#1011=CARTESIAN_POINT('',(3.450173991,2.836801693,3.775));
#1012=CARTESIAN_POINT('',(3.45680149,2.874914164,3.775));
#1013=CARTESIAN_POINT('',(3.4715993,2.911772314,3.775));
#1014=CARTESIAN_POINT('',(3.48639711,2.948630465,3.775));
#1015=CARTESIAN_POINT('',(3.509463219,2.984004853,3.775));
#1016=CARTESIAN_POINT('',(3.53889345,3.013152585,3.775));
#1017=CARTESIAN_POINT('',(3.568323681,3.042300317,3.775));
#1018=CARTESIAN_POINT('',(3.603918896,3.065024168,3.775));
#1019=CARTESIAN_POINT('',(3.640918057,3.079465793,3.775));
#1020=CARTESIAN_POINT('',(3.677917218,3.093907419,3.775));
#1021=CARTESIAN_POINT('',(3.716091837,3.100167014,3.775));
#1022=CARTESIAN_POINT('',(3.751446765,3.099996511,3.775));
#1023=CARTESIAN_POINT('',(3.786801693,3.099826009,3.775));
#1024=CARTESIAN_POINT('',(3.824914164,3.09319851,3.775));
#1025=CARTESIAN_POINT('',(3.861772314,3.0784007,3.775));
#1026=CARTESIAN_POINT('',(3.898630465,3.06360289,3.775));
#1027=CARTESIAN_POINT('',(3.934004853,3.040536781,3.775));
#1028=CARTESIAN_POINT('',(3.963152585,3.01110655,3.775));
#1029=CARTESIAN_POINT('',(3.992300317,2.981676319,3.775));
#1030=CARTESIAN_POINT('',(4.015024168,2.946081104,3.775));
#1031=CARTESIAN_POINT('',(4.029465793,2.909081943,3.775));
#1032=CARTESIAN_POINT('',(4.043907419,2.872082782,3.775));
#1033=CARTESIAN_POINT('',(4.050167014,2.833908163,3.775));
#1034=CARTESIAN_POINT('',(4.049996511,2.798553235,3.775));
#1035=CARTESIAN_POINT('',(4.049826009,2.763198307,3.775));
#1036=CARTESIAN_POINT('',(4.04319851,2.725085836,3.775));
#1037=CARTESIAN_POINT('',(4.0284007,2.688227686,3.775));
#1038=CARTESIAN_POINT('',(4.01360289,2.651369535,3.775));
#1039=CARTESIAN_POINT('',(3.990536781,2.615995147,3.775));
#1040=CARTESIAN_POINT('',(3.96110655,2.586847415,3.775));
#1041=CARTESIAN_POINT('',(3.931676319,2.557699683,3.775));
#1042=CARTESIAN_POINT('',(3.896081104,2.534975832,3.775));
#1043=CARTESIAN_POINT('',(3.859081943,2.520534207,3.775));
#1044=CARTESIAN_POINT('',(3.822082782,2.506092581,3.775));
#1045=CARTESIAN_POINT('',(3.783908163,2.499832986,3.775));
#1046=CARTESIAN_POINT('',(3.748553235,2.500003489,3.775));
#1047=B_SPLINE_CURVE_WITH_KNOTS('',3,(#998,#999,#1000,#1001,#1002,#1003,#1004,#1005,#1006,#1007,#1008,#1009,#1010,#1011,#1012,#1013,#1014,#1015,#1016,#1017,#1018,#1019,#1020,#1021,#1022,#1023,
#1024,#1025,#1026,#1027,#1028,#1029,#1030,#1031,#1032,#1033,#1034,#1035,#1036,#1037,#1038,#1039,#1040,#1041,#1042,#1043,#1044,#1045,#1046),.UNSPECIFIED.,.T.,.F.,(4,3,3,3,3,3,3,3,3,3,3,3,3,3,3,3,4),(225.276312885,247.776312885,270.276312885,292.776312885,315.276312885,337.776312885,360.276312885,382.776312885,405.276312885,427.776312885,450.276312885,472.776312885,495.276312885,517.776312885,540.276312885,562.776312885,585.276312885),.UNSPECIFIED.);
#1048=EDGE_CURVE('',#991,#991,#1047,.T.);
#1049=ORIENTED_EDGE('',*,*,#1048,.F.);
#1050=ORIENTED_EDGE('',*,*,#996,.F.);
#1051=ORIENTED_EDGE('',*,*,#906,.T.);
#1052=EDGE_LOOP('',(#997,#1049,#1050,#1051));
#1053=FACE_BOUND('',#1052,.T.);
#1054=ADVANCED_FACE('',(#1053),#989,.T.);
#1055=CARTESIAN_POINT('',(-0.,2.8,3.775));
#1056=DIRECTION('',(0.,-0.,1.));
#1057=DIRECTION('',(1.,0.,0.));
#1058=AXIS2_PLACEMENT_3D('',#1055,#1056,#1057);
#1059=PLANE('',#1058);
#1060=ORIENTED_EDGE('',*,*,#170,.T.);
#1061=ORIENTED_EDGE('',*,*,#177,.T.);
#1062=EDGE_LOOP('',(#1060,#1061));
#1063=FACE_BOUND('',#1062,.T.);
#1064=CARTESIAN_POINT('',(-0.,8.325,3.775));
#1065=VERTEX_POINT('',#1064);
#1066=CARTESIAN_POINT('',(5.525,2.8,3.775));
#1067=VERTEX_POINT('',#1066);
#1068=CARTESIAN_POINT('',(-0.,2.8,3.775));
#1069=DIRECTION('',(-0.,-0.,1.));
#1070=DIRECTION('',(0.,1.,0.));
#1071=AXIS2_PLACEMENT_3D('',#1068,#1069,#1070);
#1072=CIRCLE('',#1071,5.525);
#1073=EDGE_CURVE('',#1065,#1067,#1072,.T.);
#1074=ORIENTED_EDGE('',*,*,#1073,.T.);
#1075=CARTESIAN_POINT('',(-0.,2.8,3.775));
#1076=DIRECTION('',(-0.,-0.,1.));
#1077=DIRECTION('',(0.,1.,0.));
#1078=AXIS2_PLACEMENT_3D('',#1075,#1076,#1077);
#1079=CIRCLE('',#1078,5.525);
#1080=EDGE_CURVE('',#1067,#1065,#1079,.T.);
#1081=ORIENTED_EDGE('',*,*,#1080,.T.);
#1082=EDGE_LOOP('',(#1074,#1081));
#1083=FACE_BOUND('',#1082,.T.);
#1084=ADVANCED_FACE('',(#1063,#1083),#1059,.F.);
#1085=CARTESIAN_POINT('',(-0.15,2.8,12.975));
#1086=DIRECTION('',(0.,-0.,1.));
#1087=DIRECTION('',(-1.,0.,0.));
#1088=AXIS2_PLACEMENT_3D('',#1085,#1086,#1087);
#1089=PLANE('',#1088);
#1090=ORIENTED_EDGE('',*,*,#204,.T.);
#1091=ORIENTED_EDGE('',*,*,#211,.T.);
#1092=EDGE_LOOP('',(#1090,#1091));
#1093=FACE_BOUND('',#1092,.T.);
#1094=ORIENTED_EDGE('',*,*,#303,.T.);
#1095=ORIENTED_EDGE('',*,*,#649,.T.);
#1096=ORIENTED_EDGE('',*,*,#620,.T.);
#1097=ORIENTED_EDGE('',*,*,#589,.T.);
#1098=ORIENTED_EDGE('',*,*,#558,.T.);
#1099=ORIENTED_EDGE('',*,*,#527,.T.);
#1100=ORIENTED_EDGE('',*,*,#496,.T.);
#1101=ORIENTED_EDGE('',*,*,#465,.T.);
#1102=ORIENTED_EDGE('',*,*,#434,.T.);
#1103=ORIENTED_EDGE('',*,*,#403,.T.);
#1104=ORIENTED_EDGE('',*,*,#372,.T.);
#1105=ORIENTED_EDGE('',*,*,#341,.T.);
#1106=EDGE_LOOP('',(#1094,#1095,#1096,#1097,#1098,#1099,#1100,#1101,#1102,#1103,#1104,#1105));
#1107=FACE_BOUND('',#1106,.T.);
#1108=ADVANCED_FACE('',(#1093,#1107),#1089,.T.);
#1109=CARTESIAN_POINT('',(-0.,2.8,12.975));
#1110=DIRECTION('',(0.,0.,-1.));
#1111=DIRECTION('',(1.,0.,0.));
#1112=AXIS2_PLACEMENT_3D('',#1109,#1110,#1111);
#1113=CYLINDRICAL_SURFACE('',#1112,1.25);
#1114=CARTESIAN_POINT('',(1.25,2.8,11.975));
#1115=VERTEX_POINT('',#1114);
#1116=CARTESIAN_POINT('',(1.25,2.8,11.975));
#1117=DIRECTION('',(-0.,-0.,1.));
#1118=VECTOR('',#1117,1.);
#1119=LINE('',#1116,#1118);
#1120=EDGE_CURVE('',#1115,#129,#1119,.T.);
#1121=ORIENTED_EDGE('',*,*,#1120,.F.);
#1122=CARTESIAN_POINT('',(-0.,4.05,11.975));
#1123=VERTEX_POINT('',#1122);
#1124=CARTESIAN_POINT('',(-0.,2.8,11.975));
#1125=DIRECTION('',(0.,0.,-1.));
#1126=DIRECTION('',(0.,1.,0.));
#1127=AXIS2_PLACEMENT_3D('',#1124,#1125,#1126);
#1128=CIRCLE('',#1127,1.25);
#1129=EDGE_CURVE('',#1115,#1123,#1128,.T.);
#1130=ORIENTED_EDGE('',*,*,#1129,.T.);
#1131=CARTESIAN_POINT('',(-0.,2.8,11.975));
#1132=DIRECTION('',(0.,0.,-1.));
#1133=DIRECTION('',(0.,1.,0.));
#1134=AXIS2_PLACEMENT_3D('',#1131,#1132,#1133);
#1135=CIRCLE('',#1134,1.25);
#1136=EDGE_CURVE('',#1123,#1115,#1135,.T.);
#1137=ORIENTED_EDGE('',*,*,#1136,.T.);
#1138=ORIENTED_EDGE('',*,*,#1120,.T.);
#1139=ORIENTED_EDGE('',*,*,#135,.F.);
#1140=ORIENTED_EDGE('',*,*,#142,.F.);
#1141=EDGE_LOOP('',(#1121,#1130,#1137,#1138,#1139,#1140));
#1142=FACE_BOUND('',#1141,.T.);
#1143=ADVANCED_FACE('',(#1142),#1113,.F.);
#1144=OVER_RIDING_STYLED_ITEM('',(#288),#1143,#54);
#1145=CARTESIAN_POINT('',(-0.,2.8,9.975));
#1146=DIRECTION('',(0.,-0.,1.));
#1147=DIRECTION('',(1.,0.,0.));
#1148=AXIS2_PLACEMENT_3D('',#1145,#1146,#1147);
#1149=PLANE('',#1148);
#1150=CARTESIAN_POINT('',(2.,2.8,9.975));
#1151=VERTEX_POINT('',#1150);
#1152=CARTESIAN_POINT('',(-0.,4.8,9.975));
#1153=VERTEX_POINT('',#1152);
#1154=CARTESIAN_POINT('',(-0.,2.8,9.975));
#1155=DIRECTION('',(0.,0.,-1.));
#1156=DIRECTION('',(0.,1.,0.));
#1157=AXIS2_PLACEMENT_3D('',#1154,#1155,#1156);
#1158=CIRCLE('',#1157,2.);
#1159=EDGE_CURVE('',#1151,#1153,#1158,.T.);
#1160=ORIENTED_EDGE('',*,*,#1159,.F.);
#1161=CARTESIAN_POINT('',(-0.,2.8,9.975));
#1162=DIRECTION('',(0.,0.,-1.));
#1163=DIRECTION('',(0.,1.,0.));
#1164=AXIS2_PLACEMENT_3D('',#1161,#1162,#1163);
#1165=CIRCLE('',#1164,2.);
#1166=EDGE_CURVE('',#1153,#1151,#1165,.T.);
#1167=ORIENTED_EDGE('',*,*,#1166,.F.);
#1168=EDGE_LOOP('',(#1160,#1167));
#1169=FACE_BOUND('',#1168,.T.);
#1170=ADVANCED_FACE('',(#1169),#1149,.T.);
#1171=OVER_RIDING_STYLED_ITEM('',(#288),#1170,#54);
#1172=CARTESIAN_POINT('',(-0.,2.8,10.975));
#1173=DIRECTION('',(0.,0.,-1.));
#1174=DIRECTION('',(1.,0.,0.));
#1175=AXIS2_PLACEMENT_3D('',#1172,#1173,#1174);
#1176=CYLINDRICAL_SURFACE('',#1175,2.);
#1177=CARTESIAN_POINT('',(2.,2.8,11.975));
#1178=VERTEX_POINT('',#1177);
#1179=CARTESIAN_POINT('',(2.,2.8,9.975));
#1180=DIRECTION('',(-0.,-0.,1.));
#1181=VECTOR('',#1180,2.);
#1182=LINE('',#1179,#1181);
#1183=EDGE_CURVE('',#1151,#1178,#1182,.T.);
#1184=ORIENTED_EDGE('',*,*,#1183,.F.);
#1185=ORIENTED_EDGE('',*,*,#1159,.T.);
#1186=ORIENTED_EDGE('',*,*,#1166,.T.);
#1187=ORIENTED_EDGE('',*,*,#1183,.T.);
#1188=CARTESIAN_POINT('',(-0.,4.8,11.975));
#1189=VERTEX_POINT('',#1188);
#1190=CARTESIAN_POINT('',(-0.,2.8,11.975));
#1191=DIRECTION('',(-0.,-0.,1.));
#1192=DIRECTION('',(0.,1.,0.));
#1193=AXIS2_PLACEMENT_3D('',#1190,#1191,#1192);
#1194=CIRCLE('',#1193,2.);
#1195=EDGE_CURVE('',#1178,#1189,#1194,.T.);
#1196=ORIENTED_EDGE('',*,*,#1195,.T.);
#1197=CARTESIAN_POINT('',(-0.,2.8,11.975));
#1198=DIRECTION('',(-0.,-0.,1.));
#1199=DIRECTION('',(0.,1.,0.));
#1200=AXIS2_PLACEMENT_3D('',#1197,#1198,#1199);
#1201=CIRCLE('',#1200,2.);
#1202=EDGE_CURVE('',#1189,#1178,#1201,.T.);
#1203=ORIENTED_EDGE('',*,*,#1202,.T.);
#1204=EDGE_LOOP('',(#1184,#1185,#1186,#1187,#1196,#1203));
#1205=FACE_BOUND('',#1204,.T.);
#1206=ADVANCED_FACE('',(#1205),#1176,.F.);
#1207=OVER_RIDING_STYLED_ITEM('',(#288),#1206,#54);
#1208=CARTESIAN_POINT('',(-0.,2.8,11.975));
#1209=DIRECTION('',(0.,-0.,1.));
#1210=DIRECTION('',(1.,0.,0.));
#1211=AXIS2_PLACEMENT_3D('',#1208,#1209,#1210);
#1212=PLANE('',#1211);
#1213=ORIENTED_EDGE('',*,*,#1195,.F.);
#1214=ORIENTED_EDGE('',*,*,#1202,.F.);
#1215=EDGE_LOOP('',(#1213,#1214));
#1216=FACE_BOUND('',#1215,.T.);
#1217=ORIENTED_EDGE('',*,*,#1129,.F.);
#1218=ORIENTED_EDGE('',*,*,#1136,.F.);
#1219=EDGE_LOOP('',(#1217,#1218));
#1220=FACE_BOUND('',#1219,.T.);
#1221=ADVANCED_FACE('',(#1216,#1220),#1212,.F.);
#1222=CARTESIAN_POINT('',(-0.,2.8,3.375));
#1223=DIRECTION('',(0.,0.,-1.));
#1224=DIRECTION('',(1.,0.,0.));
#1225=AXIS2_PLACEMENT_3D('',#1222,#1223,#1224);
#1226=TOROIDAL_SURFACE('',#1225,5.225,0.5);
#1227=CARTESIAN_POINT('',(5.225,2.8,3.375));
#1228=DIRECTION('',(0.,-1.,-0.));
#1229=DIRECTION('',(1.,0.,0.));
#1230=AXIS2_PLACEMENT_3D('',#1227,#1228,#1229);
#1231=CIRCLE('',#1230,0.5);
#1232=EDGE_CURVE('',#1067,#859,#1231,.T.);
#1233=ORIENTED_EDGE('',*,*,#1232,.F.);
#1234=ORIENTED_EDGE('',*,*,#1073,.F.);
#1235=ORIENTED_EDGE('',*,*,#1080,.F.);
#1236=ORIENTED_EDGE('',*,*,#1232,.T.);
#1237=ORIENTED_EDGE('',*,*,#867,.T.);
#1238=ORIENTED_EDGE('',*,*,#874,.T.);
#1239=EDGE_LOOP('',(#1233,#1234,#1235,#1236,#1237,#1238));
#1240=FACE_BOUND('',#1239,.T.);
#1241=ADVANCED_FACE('',(#1240),#1226,.F.);
#1242=CARTESIAN_POINT('',(-0.,2.8,3.775));
#1243=DIRECTION('',(0.,0.,-1.));
#1244=DIRECTION('',(0.,1.,0.));
#1245=AXIS2_PLACEMENT_3D('',#1242,#1243,#1244);
#1246=PLANE('',#1245);
#1247=ORIENTED_EDGE('',*,*,#819,.T.);
#1248=EDGE_LOOP('',(#1247));
#1249=FACE_BOUND('',#1248,.T.);
#1250=ADVANCED_FACE('',(#1249),#1246,.T.);
#1251=CARTESIAN_POINT('',(-0.,2.8,3.775));
#1252=DIRECTION('',(0.,0.,-1.));
#1253=DIRECTION('',(0.,1.,0.));
#1254=AXIS2_PLACEMENT_3D('',#1251,#1252,#1253);
#1255=PLANE('',#1254);
#1256=ORIENTED_EDGE('',*,*,#1048,.T.);
#1257=EDGE_LOOP('',(#1256));
#1258=FACE_BOUND('',#1257,.T.);
#1259=ADVANCED_FACE('',(#1258),#1255,.T.);
#1260=CLOSED_SHELL('',(#97,#146,#181,#232,#267,#281,#329,#360,#391,#422,#453,#484,#515,#546,#577,#608,#639,#661,#681,#852,#913,#1054,#1084,#1108,#1143,#1170,
#1206,#1221,#1241,#1250,#1259));
#1261=MANIFOLD_SOLID_BREP('Body1',#1260);
#1262=DRAUGHTING_PRE_DEFINED_COLOUR('black');
#1263=FILL_AREA_STYLE_COLOUR('',#1262);
#1264=FILL_AREA_STYLE('',(#1263));
#1265=SURFACE_STYLE_FILL_AREA(#1264);
#1266=SURFACE_SIDE_STYLE('',(#1265));
#1267=SURFACE_STYLE_USAGE(.BOTH.,#1266);
#1268=PRESENTATION_STYLE_ASSIGNMENT((#1267));
#54=STYLED_ITEM('',(#1268),#1261);
#1270=CARTESIAN_POINT('',(-0.,2.8,3.775));
#1271=DIRECTION('',(0.,0.,-1.));
#1272=DIRECTION('',(0.,1.,0.));
#1273=AXIS2_PLACEMENT_3D('',#1270,#1271,#1272);
#1274=PLANE('',#1273);
#1275=CARTESIAN_POINT('',(3.537867966,3.012132034,3.775));
#1276=VERTEX_POINT('',#1275);
#1277=CARTESIAN_POINT('',(3.75,3.1,3.775));
#1278=VERTEX_POINT('',#1277);
#1279=CARTESIAN_POINT('',(3.75,2.8,3.775));
#1280=DIRECTION('',(0.,0.,-1.));
#1281=DIRECTION('',(0.,1.,0.));
#1282=AXIS2_PLACEMENT_3D('',#1279,#1280,#1281);
#1283=CIRCLE('',#1282,0.3);
#1284=EDGE_CURVE('',#1276,#1278,#1283,.T.);
#1285=ORIENTED_EDGE('',*,*,#1284,.F.);
#1286=CARTESIAN_POINT('',(3.75,2.8,3.775));
#1287=DIRECTION('',(0.,0.,-1.));
#1288=DIRECTION('',(0.,1.,0.));
#1289=AXIS2_PLACEMENT_3D('',#1286,#1287,#1288);
#1290=CIRCLE('',#1289,0.3);
#1291=EDGE_CURVE('',#1278,#1276,#1290,.T.);
#1292=ORIENTED_EDGE('',*,*,#1291,.F.);
#1293=EDGE_LOOP('',(#1285,#1292));
#1294=FACE_BOUND('',#1293,.T.);
#1295=ADVANCED_FACE('',(#1294),#1274,.F.);
#1296=CARTESIAN_POINT('',(3.75,2.8,-1.125));
#1297=DIRECTION('',(0.,0.,-1.));
#1298=DIRECTION('',(0.,1.,0.));
#1299=AXIS2_PLACEMENT_3D('',#1296,#1297,#1298);
#1300=PLANE('',#1299);
#1301=CARTESIAN_POINT('',(3.537867966,3.012132034,-1.125));
#1302=VERTEX_POINT('',#1301);
#1303=CARTESIAN_POINT('',(3.75,3.1,-1.125));
#1304=VERTEX_POINT('',#1303);
#1305=CARTESIAN_POINT('',(3.75,2.8,-1.125));
#1306=DIRECTION('',(-0.,-0.,1.));
#1307=DIRECTION('',(0.,1.,0.));
#1308=AXIS2_PLACEMENT_3D('',#1305,#1306,#1307);
#1309=CIRCLE('',#1308,0.3);
#1310=EDGE_CURVE('',#1302,#1304,#1309,.T.);
#1311=ORIENTED_EDGE('',*,*,#1310,.F.);
#1312=CARTESIAN_POINT('',(3.75,2.8,-1.125));
#1313=DIRECTION('',(-0.,-0.,1.));
#1314=DIRECTION('',(0.,1.,0.));
#1315=AXIS2_PLACEMENT_3D('',#1312,#1313,#1314);
#1316=CIRCLE('',#1315,0.3);
#1317=EDGE_CURVE('',#1304,#1302,#1316,.T.);
#1318=ORIENTED_EDGE('',*,*,#1317,.F.);
#1319=EDGE_LOOP('',(#1311,#1318));
#1320=FACE_BOUND('',#1319,.T.);
#1321=ADVANCED_FACE('',(#1320),#1300,.T.);
#1322=CARTESIAN_POINT('',(3.75,2.8,3.875));
#1323=DIRECTION('',(-0.,0.,-1.));
#1324=DIRECTION('',(-0.707106781,0.707106781,0.));
#1325=AXIS2_PLACEMENT_3D('',#1322,#1323,#1324);
#1326=CYLINDRICAL_SURFACE('',#1325,0.3);
#1327=CARTESIAN_POINT('',(3.537867966,3.012132034,-1.125));
#1328=DIRECTION('',(-0.,-0.,1.));
#1329=VECTOR('',#1328,4.9);
#1330=LINE('',#1327,#1329);
#1331=EDGE_CURVE('',#1302,#1276,#1330,.T.);
#1332=ORIENTED_EDGE('',*,*,#1331,.T.);
#1333=ORIENTED_EDGE('',*,*,#1284,.T.);
#1334=ORIENTED_EDGE('',*,*,#1291,.T.);
#1335=ORIENTED_EDGE('',*,*,#1331,.F.);
#1336=ORIENTED_EDGE('',*,*,#1310,.T.);
#1337=ORIENTED_EDGE('',*,*,#1317,.T.);
#1338=EDGE_LOOP('',(#1332,#1333,#1334,#1335,#1336,#1337));
#1339=FACE_BOUND('',#1338,.T.);
#1340=ADVANCED_FACE('',(#1339),#1326,.T.);
#1341=CLOSED_SHELL('',(#1295,#1321,#1340));
#1342=MANIFOLD_SOLID_BREP('Body2',#1341);
#1269=STYLED_ITEM('',(#288),#1342);
#1344=CARTESIAN_POINT('',(-0.,2.8,3.775));
#1345=DIRECTION('',(0.,0.,-1.));
#1346=DIRECTION('',(0.,1.,0.));
#1347=AXIS2_PLACEMENT_3D('',#1344,#1345,#1346);
#1348=PLANE('',#1347);
#1349=CARTESIAN_POINT('',(-3.962132034,3.012132034,3.775));
#1350=VERTEX_POINT('',#1349);
#1351=CARTESIAN_POINT('',(-3.75,3.1,3.775));
#1352=VERTEX_POINT('',#1351);
#1353=CARTESIAN_POINT('',(-3.75,2.8,3.775));
#1354=DIRECTION('',(0.,0.,-1.));
#1355=DIRECTION('',(0.,1.,0.));
#1356=AXIS2_PLACEMENT_3D('',#1353,#1354,#1355);
#1357=CIRCLE('',#1356,0.3);
#1358=EDGE_CURVE('',#1350,#1352,#1357,.T.);
#1359=ORIENTED_EDGE('',*,*,#1358,.F.);
#1360=CARTESIAN_POINT('',(-3.75,2.8,3.775));
#1361=DIRECTION('',(0.,0.,-1.));
#1362=DIRECTION('',(0.,1.,0.));
#1363=AXIS2_PLACEMENT_3D('',#1360,#1361,#1362);
#1364=CIRCLE('',#1363,0.3);
#1365=EDGE_CURVE('',#1352,#1350,#1364,.T.);
#1366=ORIENTED_EDGE('',*,*,#1365,.F.);
#1367=EDGE_LOOP('',(#1359,#1366));
#1368=FACE_BOUND('',#1367,.T.);
#1369=ADVANCED_FACE('',(#1368),#1348,.F.);
#1370=CARTESIAN_POINT('',(-0.,2.8,-2.425));
#1371=DIRECTION('',(0.,0.,-1.));
#1372=DIRECTION('',(0.,1.,0.));
#1373=AXIS2_PLACEMENT_3D('',#1370,#1371,#1372);
#1374=PLANE('',#1373);
#1375=CARTESIAN_POINT('',(-3.962132034,3.012132034,-2.425));
#1376=VERTEX_POINT('',#1375);
#1377=CARTESIAN_POINT('',(-3.75,3.1,-2.425));
#1378=VERTEX_POINT('',#1377);
#1379=CARTESIAN_POINT('',(-3.75,2.8,-2.425));
#1380=DIRECTION('',(-0.,-0.,1.));
#1381=DIRECTION('',(0.,1.,0.));
#1382=AXIS2_PLACEMENT_3D('',#1379,#1380,#1381);
#1383=CIRCLE('',#1382,0.3);
#1384=EDGE_CURVE('',#1376,#1378,#1383,.T.);
#1385=ORIENTED_EDGE('',*,*,#1384,.F.);
#1386=CARTESIAN_POINT('',(-3.75,2.8,-2.425));
#1387=DIRECTION('',(-0.,-0.,1.));
#1388=DIRECTION('',(0.,1.,0.));
#1389=AXIS2_PLACEMENT_3D('',#1386,#1387,#1388);
#1390=CIRCLE('',#1389,0.3);
#1391=EDGE_CURVE('',#1378,#1376,#1390,.T.);
#1392=ORIENTED_EDGE('',*,*,#1391,.F.);
#1393=EDGE_LOOP('',(#1385,#1392));
#1394=FACE_BOUND('',#1393,.T.);
#1395=ADVANCED_FACE('',(#1394),#1374,.T.);
#1396=CARTESIAN_POINT('',(-3.75,2.8,3.875));
#1397=DIRECTION('',(-0.,0.,-1.));
#1398=DIRECTION('',(-0.707106781,0.707106781,0.));
#1399=AXIS2_PLACEMENT_3D('',#1396,#1397,#1398);
#1400=CYLINDRICAL_SURFACE('',#1399,0.3);
#1401=CARTESIAN_POINT('',(-3.962132034,3.012132034,-2.425));
#1402=DIRECTION('',(-0.,-0.,1.));
#1403=VECTOR('',#1402,6.2);
#1404=LINE('',#1401,#1403);
#1405=EDGE_CURVE('',#1376,#1350,#1404,.T.);
#1406=ORIENTED_EDGE('',*,*,#1405,.T.);
#1407=ORIENTED_EDGE('',*,*,#1358,.T.);
#1408=ORIENTED_EDGE('',*,*,#1365,.T.);
#1409=ORIENTED_EDGE('',*,*,#1405,.F.);
#1410=ORIENTED_EDGE('',*,*,#1384,.T.);
#1411=ORIENTED_EDGE('',*,*,#1391,.T.);
#1412=EDGE_LOOP('',(#1406,#1407,#1408,#1409,#1410,#1411));
#1413=FACE_BOUND('',#1412,.T.);
#1414=ADVANCED_FACE('',(#1413),#1400,.T.);
#1415=CLOSED_SHELL('',(#1369,#1395,#1414));
#1416=MANIFOLD_SOLID_BREP('Body3',#1415);
#1343=STYLED_ITEM('',(#288),#1416);
#35=SHAPE_REPRESENTATION('9x12 Buzzer.step',(#15),#33);
#36=ADVANCED_BREP_SHAPE_REPRESENTATION('9x12 Buzzer.step',(#1261,#1342,#1416),#33);
#1424=SHAPE_REPRESENTATION_RELATIONSHIP('','',#35,#36);
#1425=CARTESIAN_POINT('',(0.,0.,0.));
#1426=DIRECTION('',(0.,0.,1.));
#1427=DIRECTION('',(1.,0.,0.));
#1428=AXIS2_PLACEMENT_3D('',#1425,#1426,#1427);
#1430=MAPPED_ITEM('',#1429,#1428);
#1429=REPRESENTATION_MAP(#1428,#35);
#1431=APPLICATION_CONTEXT('Managed model based 3d engineering');
#1432=APPLICATION_PROTOCOL_DEFINITION('international standard','ap242_managed_model_based_3d_engineering',2014,#1431);
#1433=PRODUCT_CONTEXT('',#1431,'mechanical');
#1434=PRODUCT_DEFINITION_CONTEXT('part definition',#1431,'design');
#43=PRODUCT('9x12 Buzzer.step','9x12 Buzzer.step','',(#1433));
#1435=PRODUCT_RELATED_PRODUCT_CATEGORY('part','',(#43));
#1436=PRODUCT_DEFINITION_FORMATION_WITH_SPECIFIED_SOURCE('','',#43,.NOT_KNOWN.);
#44=PRODUCT_DEFINITION('design','',#1436,#1434);
#42=PRODUCT_DEFINITION_SHAPE('','',#44);
#1437=SHAPE_DEFINITION_REPRESENTATION(#42,#35);
#34=DRAUGHTING_MODEL('',(#1430),#33);
#16=SHAPE_REPRESENTATION('root',(#15,#48),#10);
#1438=CARTESIAN_POINT('',(0.,0.,0.));
#1439=DIRECTION('',(0.,0.,1.));
#1440=DIRECTION('',(1.,0.,0.));
#1441=AXIS2_PLACEMENT_3D('',#1438,#1439,#1440);
#1443=MAPPED_ITEM('',#1442,#1441);
#1442=REPRESENTATION_MAP(#1441,#16);
#24=PRODUCT('root','root','',(#1433));
#1444=PRODUCT_RELATED_PRODUCT_CATEGORY('part','',(#24));
#1445=PRODUCT_DEFINITION_FORMATION_WITH_SPECIFIED_SOURCE('','',#24,.NOT_KNOWN.);
#25=PRODUCT_DEFINITION('design','',#1445,#1434);
#23=PRODUCT_DEFINITION_SHAPE('','',#25);
#1446=SHAPE_DEFINITION_REPRESENTATION(#23,#16);
#11=DRAUGHTING_MODEL('',(#1443),#10);
#1447=DESCRIPTIVE_REPRESENTATION_ITEM('KEY','C:\\Users\\Nhatkhongbuon\\AppData\\Local\\Packages\\Shapr3D.Shapr3D_dvv5p1vgwv6mp\\TempState\\de0aa549-6df3-482f-9d7c-613db5256dcf.tmp');
#1448=PROPERTY_DEFINITION('KEY','',#25);
#1449=REPRESENTATION('',(#1447),#10);
#1450=PROPERTY_DEFINITION_REPRESENTATION(#1448,#1449);
#1451=GENERAL_PROPERTY('','KEY','');
#1452=GENERAL_PROPERTY_ASSOCIATION('','',#1451,#1448);
#1=MECHANICAL_DESIGN_GEOMETRIC_PRESENTATION_REPRESENTATION('',(#289,#682,#1144,#1171,#1207,#54,#1269,#1343),#10);
ENDSEC;
END-ISO-10303-21;
